<svg width="153" height="165" viewBox="0 0 153 165" version="1.1" xmlns="http://www.w3.org/2000/svg" xmlns:xlink="http://www.w3.org/1999/xlink">
<g id="Canvas" fill="none">
<g id="connect_green">
<g id="Vector">
<path d="M 29.6 14.8C 29.6 22.9738 22.9738 29.6 14.8 29.6C 6.62619 29.6 -3.05176e-06 22.9738 -3.05176e-06 14.8C -3.05176e-06 6.62618 6.62619 -6.10352e-06 14.8 -6.10352e-06C 22.9738 -6.10352e-06 29.6 6.62618 29.6 14.8Z" stroke-width="5" stroke-miterlimit="10" stroke-linecap="round" stroke-linejoin="round" transform="translate(5.2 102.5)" stroke="#3FBF55"/>
</g>
<g id="Vector_2">
<path d="M 34.1 29.5L 0 29.5L 0 17.1C 0 7.70001 7.60001 0 17.1 0C 26.5 0 34.2 7.60001 34.2 17.1L 34.2 29.5L 34.1 29.5Z" stroke-width="5" stroke-miterlimit="10" stroke-linecap="round" stroke-linejoin="round" transform="translate(3 132.1)" stroke="#3FBF55"/>
</g>
<g id="Vector_3">
<path d="M 29.6 14.8C 29.6 22.9738 22.9738 29.6 14.8 29.6C 6.62619 29.6 3.05176e-06 22.9738 3.05176e-06 14.8C 3.05176e-06 6.62618 6.62619 1.52588e-06 14.8 1.52588e-06C 22.9738 1.52588e-06 29.6 6.62618 29.6 14.8Z" stroke-width="5" stroke-miterlimit="10" stroke-linecap="round" stroke-linejoin="round" transform="translate(61.8 3)" stroke="#3FBF55"/>
</g>
<g id="Vector_4">
<path d="M 34.1 29.5L 0 29.5L 0 17.1C 0 7.7 7.60001 -6.10352e-06 17.1 -6.10352e-06C 26.5 -6.10352e-06 34.2 7.6 34.2 17.1L 34.2 29.5L 34.1 29.5Z" stroke-width="5" stroke-miterlimit="10" stroke-linecap="round" stroke-linejoin="round" transform="translate(59.5 32.5)" stroke="#3FBF55"/>
</g>
<g id="Vector_5">
<path d="M 29.6 14.8C 29.6 22.9738 22.9738 29.6 14.8 29.6C 6.62619 29.6 -3.05176e-06 22.9738 -3.05176e-06 14.8C -3.05176e-06 6.62618 6.62619 -6.10352e-06 14.8 -6.10352e-06C 22.9738 -6.10352e-06 29.6 6.62618 29.6 14.8Z" stroke-width="5" stroke-miterlimit="10" stroke-linecap="round" stroke-linejoin="round" transform="translate(117.7 102.5)" stroke="#3FBF55"/>
</g>
<g id="Vector_6">
<path d="M 34.1 29.5L 0 29.5L 0 17.1C 0 7.70001 7.60001 0 17.1 0C 26.5 0 34.2 7.60001 34.2 17.1L 34.2 29.5L 34.1 29.5Z" stroke-width="5" stroke-miterlimit="10" stroke-linecap="round" stroke-linejoin="round" transform="translate(115.5 132.1)" stroke="#3FBF55"/>
</g>
<g id="Vector_7">
<path d="M -3.05176e-06 -6.10352e-06L 42.7 -6.10352e-06" stroke-width="5" stroke-miterlimit="10" stroke-linecap="round" stroke-linejoin="round" transform="translate(55.2 143.5)" stroke="#3FBF55"/>
</g>
<g id="Vector_8">
<path d="M 6.10352e-06 -6.10352e-06L 47.9 -6.10352e-06" stroke-width="5" stroke-miterlimit="10" stroke-linecap="round" stroke-linejoin="round" transform="translate(52.6 143.5)" stroke="#3FBF55"/>
</g>
<g id="Group">
<g id="Vector_9">
<path d="M -3.05176e-06 3.05176e-06L 21 26.4" stroke-width="5" stroke-miterlimit="10" stroke-linecap="round" stroke-linejoin="round" transform="translate(91.7 72.4)" stroke="#3FBF55"/>
</g>
<g id="Vector_10">
<path d="M 21.8 3.05176e-06L -6.10352e-06 26.4" stroke-width="5" stroke-miterlimit="10" stroke-linecap="round" stroke-linejoin="round" transform="translate(40.4 72.4)" stroke="#3FBF55"/>
</g>
</g>
</g>
</g>
</svg>

