<?xml version="1.0" encoding="utf-8"?>
<!-- Generator: Adobe Illustrator 22.0.1, SVG Export Plug-In . SVG Version: 6.00 Build 0)  -->
<svg version="1.1" id="Layer_1" xmlns="http://www.w3.org/2000/svg" xmlns:xlink="http://www.w3.org/1999/xlink" x="0px" y="0px"
	 viewBox="0 0 246 91" style="enable-background:new 0 0 246 91;" xml:space="preserve">
<style type="text/css">
	.st0{fill:#00FF7B;}
	.st1{fill:#7FFEA5;}
	.st2{fill:#CCFFDF;}
	.st3{fill:#010900;}
</style>
<title>_Iplay Green (WB) (1)</title>
<desc>Created with Sketch.</desc>
<g id="Page-1">
	<g id="Artboard" transform="translate(-297.000000, -131.000000)">
		<g id="_x5F_Iplay-Green-_x28_WB_x29_-_x28_1_x29_" transform="translate(297.000000, 131.000000)">
			<polyline id="Fill-1" class="st0" points="237.7,16.5 223.8,16.5 232,0.3 245.9,0.3 237.7,16.5 			"/>
			<polyline id="Fill-2" class="st1" points="215.7,16.5 201.8,16.5 210,0.3 223.8,0.3 215.7,16.5 			"/>
			<polyline id="Fill-3" class="st2" points="193.6,16.5 179.7,16.5 187.9,0.3 201.8,0.3 193.6,16.5 			"/>
			<polyline id="Fill-4" class="st3" points="199.1,24.8 186.8,51.3 180.6,24.8 166.4,24.8 178,68.5 167.3,89.3 180.9,89.3 
				212.7,24.8 199.1,24.8 			"/>
			<path id="Fill-5" class="st3" d="M167.9,89.1h12.7l31.4-63.8h-12.7l-12.7,27.3l-6.4-27.3h-13.4l11.5,43.4l-0.1,0.1L167.9,89.1z
				 M181.1,89.8h-14.4l10.9-21.2l-11.7-44.1h14.9l6,25.8l12-25.8h14.4L181.1,89.8z"/>
			<path id="Fill-6" class="st3" d="M146.1,63.2l-3-22.9L133,63.2H146.1z M105.9,89.8l27.3-55.2c3.7-7.5,7.7-10.5,13.1-10.5
				c5.2,0,8.5,3.3,9.7,10.5l9.5,55.2h-15.8l-2-14.8h-19.9l-6.6,14.8H105.9z"/>
			<path id="Fill-7" class="st3" d="M86.7,24.1h15.1l-7.2,45.7c-0.2,1.4-0.3,2.5-0.3,3.4c0,3.3,1.6,4.2,6.6,4.2H118l-1.9,12.1
				C111.7,89.7,102.9,90,99,90c-10.7,0-20.5-0.6-20.5-12.3c0-1.3,0.1-2.7,0.4-4.3L86.7,24.1"/>
			<path id="Fill-8" class="st3" d="M50.3,52.9c7.1,0,11.4-1.9,12.6-9.4c0.1-1,0.2-1.9,0.2-2.7c0-4.6-2.6-6.5-9.7-6.5
				c-2.1,0-4.5,0.1-6.8,0.5l-2.8,17.7C46,52.9,48.1,52.9,50.3,52.9z M38.2,88.7h-15l10.2-64.5c6.1-1.2,13.7-1.9,21.7-1.9
				c12.9,0,23.2,2.3,23.2,15.9c0,1.6-0.1,3.4-0.5,5.4C75,61.3,63.9,65.1,48.9,65.1c-2.3,0-5-0.1-6.9-0.2L38.2,88.7z"/>
			<polyline id="Fill-9" class="st3" points="24.8,22.9 10.6,22.9 0.2,88.4 14.4,88.4 			"/>
		</g>
	</g>
</g>
</svg>
