<?xml version="1.0" encoding="UTF-8"?>
<svg width="299px" height="110px" viewBox="0 0 299 110" version="1.1" xmlns="http://www.w3.org/2000/svg" xmlns:xlink="http://www.w3.org/1999/xlink">
    <!-- Generator: Sketch 49.3 (51167) - http://www.bohemiancoding.com/sketch -->
    <title>_Iplay Green (BB)</title>
    <desc>Created with Sketch.</desc>
    <defs></defs>
    <g id="Page-1" stroke="none" stroke-width="1" fill="none" fill-rule="evenodd">
        <g id="iPhone-8" transform="translate(-39.000000, -131.000000)">
            <g id="_Iplay-Green-(BB)" transform="translate(38.000000, 130.000000)">
                <polyline id="Fill-1" fill="#00FF7B" points="289.421053 20.7753036 272.565182 20.7753036 282.482186 1.01538462 299.339271 1.01538462 289.421053 20.7753036"></polyline>
                <polyline id="Fill-2" fill="#169C3F" points="262.646964 20.7753036 245.789879 20.7753036 255.708097 1.01538462 272.565182 1.01538462 262.646964 20.7753036"></polyline>
                <polyline id="Fill-3" fill="#075220" points="235.872874 20.7753036 219.015789 20.7753036 228.934008 1.01538462 245.789879 1.01538462 235.872874 20.7753036"></polyline>
                <polyline id="Fill-4" fill="#FFFFFF" points="242.512955 31.2765182 227.54332 63.4979757 220.012955 31.2765182 202.821862 31.2765182 216.921862 84.4214575 203.917409 109.721053 220.430769 109.721053 258.993522 31.2765182 242.512955 31.2765182"></polyline>
                <path d="M204.664372,109.265587 L220.147773,109.265587 L258.261134,31.7319838 L242.803239,31.7319838 L227.4,64.8862348 L219.649798,31.7319838 L203.41336,31.7319838 L217.407692,84.4736842 L217.32753,84.6291498 L204.664372,109.265587 Z M220.713765,110.176518 L203.17166,110.176518 L216.437247,84.3692308 L202.230364,30.8210526 L220.373684,30.8210526 L227.687854,62.108502 L242.221457,30.8210526 L259.725911,30.8210526 L220.713765,110.176518 Z" id="Fill-5" fill="#FFFFFF"></path>
                <path d="M178.212146,77.4704453 L174.552632,49.6068826 L162.247773,77.4704453 L178.212146,77.4704453 Z M129.332794,109.807287 L162.484615,42.7263158 C166.959109,33.6753036 171.806478,30.0145749 178.382186,30.0145749 C184.68583,30.0145749 188.652632,34.0821862 190.14413,42.7263158 L201.669231,109.807287 L182.483806,109.807287 L180.110526,91.7744939 L155.9417,91.7744939 L147.976518,109.807287 L129.332794,109.807287 Z" id="Fill-6" fill="#FFFFFF"></path>
                <path d="M106.008097,29.9817814 L124.295951,29.9817814 L115.495142,85.4307692 C115.220648,87.0753036 115.083401,88.4101215 115.083401,89.5408907 C115.083401,93.582996 117.036437,94.6445344 123.064372,94.6445344 L144.0583,94.6445344 L141.728745,109.371255 C136.421053,109.610526 125.665992,109.987045 120.974089,109.987045 C107.993927,109.987045 96.0753036,109.269231 96.0753036,95.0210526 C96.0753036,93.4445344 96.2125506,91.6979757 96.5210526,89.7801619 L106.008097,29.9817814" id="Fill-7" fill="#FFFFFF"></path>
                <path d="M61.817004,64.9906883 C70.4477733,64.9906883 75.6874494,62.6611336 77.1255061,53.6198381 C77.2967611,52.4210526 77.4,51.3582996 77.4,50.4 C77.4,44.8178138 74.21417,42.5574899 65.6186235,42.5574899 C63.0838057,42.5574899 60.1044534,42.7287449 57.3983806,43.1052632 L54.008502,64.6129555 C56.5421053,64.9554656 59.1449393,64.9906883 61.817004,64.9906883 Z M47.0550607,108.383806 L28.8012146,108.383806 L41.1995951,30.0898785 C48.5623482,28.68583 57.8781377,27.7615385 67.5704453,27.7615385 C83.2906883,27.7615385 95.757085,30.6048583 95.757085,47.0441296 C95.757085,49.0299595 95.58583,51.2222672 95.2093117,53.6198381 C91.8182186,75.162753 78.2902834,79.8206478 60.0704453,79.8206478 C57.3303644,79.8206478 54.0425101,79.6821862 51.6449393,79.5461538 L47.0550607,108.383806 Z" id="Fill-8" fill="#FFFFFF"></path>
                <polyline id="Fill-9" fill="#FFFFFF" points="30.859919 28.5619433 13.5838057 28.5619433 0.998380567 108.038866 18.2210526 108.038866"></polyline>
            </g>
        </g>
    </g>
</svg>