<svg width="117" height="150" viewBox="0 0 117 150" version="1.1" xmlns="http://www.w3.org/2000/svg" xmlns:xlink="http://www.w3.org/1999/xlink">
<g id="Canvas" fill="none">
<g id="maze_green">
<g id="Group">
<g id="Vector">
<path d="M 47.2 109.8L 6.10352e-06 109.8L 6.10352e-06 6.10352e-06L 47.2 6.10352e-06" stroke-width="4.5312" stroke-miterlimit="10" stroke-linejoin="round" transform="translate(3 23.9)" stroke="#3FBF55"/>
</g>
<g id="Vector_2">
<path d="M 6.10352e-06 6.10352e-06L 46.8 6.10352e-06L 46.8 109.8L 6.10352e-06 109.8" stroke-width="4.5312" stroke-miterlimit="10" stroke-linejoin="round" transform="translate(67 23.9)" stroke="#3FBF55"/>
</g>
<g id="Group_2">
<g id="Vector_3">
<path d="M 0 100.3L 0 78.7L 36.8 78.7L 36.8 6.10352e-06" stroke-width="2.7187" stroke-miterlimit="10" stroke-linecap="round" stroke-linejoin="round" transform="translate(68.4 33.4)" stroke="#3FBF55"/>
</g>
<g id="Vector_4">
<path d="M 22.2 -3.05176e-06L 22.2 79.9L 3.05176e-06 79.9" stroke-width="2.7187" stroke-miterlimit="10" stroke-linecap="round" stroke-linejoin="round" transform="translate(75.7 26)" stroke="#3FBF55"/>
</g>
<g id="Vector_5">
<path d="M 34.3 -3.05176e-06L -3.05176e-06 -3.05176e-06" stroke-width="2.7187" stroke-miterlimit="10" stroke-linecap="round" stroke-linejoin="round" transform="translate(77.1 119.5)" stroke="#3FBF55"/>
</g>
<g id="Vector_6">
<path d="M 3.05176e-06 0L 35.5 0" stroke-width="2.7187" stroke-miterlimit="10" stroke-linecap="round" stroke-linejoin="round" transform="translate(69.7 126.3)" stroke="#3FBF55"/>
</g>
<g id="Vector_7">
<path d="M 0 83.7L 0 65.1L 23.6 65.1L 23.6 6.10352e-06L 7.3 6.10352e-06L 7.3 36.5" stroke-width="2.7187" stroke-miterlimit="10" stroke-linecap="round" stroke-linejoin="round" transform="translate(68.4 33.4)" stroke="#3FBF55"/>
</g>
<g id="Vector_8">
<path d="M 0 -3.05176e-06L 0 65.2L 17.5 65.2" stroke-width="2.7187" stroke-miterlimit="10" stroke-linecap="round" stroke-linejoin="round" transform="translate(68.4 26)" stroke="#3FBF55"/>
</g>
<g id="Vector_9">
<path d="M 17.2 -3.05176e-06L -6.10352e-06 -3.05176e-06" stroke-width="2.7187" stroke-miterlimit="10" stroke-linecap="round" stroke-linejoin="round" transform="translate(74.8 84)" stroke="#3FBF55"/>
</g>
<g id="Vector_10">
<path d="M 0 35L 15 35L 15 6.10352e-06" stroke-width="2.7187" stroke-miterlimit="10" stroke-linecap="round" stroke-linejoin="round" transform="translate(68.4 41.4)" stroke="#3FBF55"/>
</g>
</g>
<g id="Group_3">
<g id="Vector_11">
<path d="M 36.8 -3.05176e-06L 36.8 21.5L 6.10352e-06 21.5L 6.10352e-06 100.2" stroke-width="2.7187" stroke-miterlimit="10" stroke-linecap="round" stroke-linejoin="round" transform="translate(12 25)" stroke="#3FBF55"/>
</g>
<g id="Vector_12">
<path d="M -6.10352e-06 79.9L -6.10352e-06 -6.10352e-06L 22.2 -6.10352e-06" stroke-width="2.7187" stroke-miterlimit="10" stroke-linecap="round" stroke-linejoin="round" transform="translate(19.3 52.7)" stroke="#3FBF55"/>
</g>
<g id="Vector_13">
<path d="M 0 3.05176e-06L 35.3 3.05176e-06" stroke-width="2.7187" stroke-miterlimit="10" stroke-linecap="round" stroke-linejoin="round" transform="translate(4.89999 39.1)" stroke="#3FBF55"/>
</g>
<g id="Vector_14">
<path d="M 35.5 0L 6.10352e-06 0" stroke-width="2.7187" stroke-miterlimit="10" stroke-linecap="round" stroke-linejoin="round" transform="translate(12 32.3)" stroke="#3FBF55"/>
</g>
<g id="Vector_15">
<path d="M 23.6 -3.05176e-06L 23.6 18.6L 3.05176e-06 18.6L 3.05176e-06 83.7L 16.3 83.7L 16.3 47.3" stroke-width="2.7187" stroke-miterlimit="10" stroke-linecap="round" stroke-linejoin="round" transform="translate(25.2 41.5)" stroke="#3FBF55"/>
</g>
<g id="Vector_16">
<path d="M 17.4 65.2L 17.4 6.10352e-06L 0 6.10352e-06" stroke-width="2.7187" stroke-miterlimit="10" stroke-linecap="round" stroke-linejoin="round" transform="translate(31.4 67.4)" stroke="#3FBF55"/>
</g>
<g id="Vector_17">
<path d="M 3.05176e-06 3.05176e-06L 17.2 3.05176e-06" stroke-width="2.7187" stroke-miterlimit="10" stroke-linecap="round" stroke-linejoin="round" transform="translate(25.2 74.6)" stroke="#3FBF55"/>
</g>
<g id="Vector_18">
<path d="M 15 -6.10352e-06L -6.10352e-06 -6.10352e-06L -6.10352e-06 35" stroke-width="2.7187" stroke-miterlimit="10" stroke-linecap="round" stroke-linejoin="round" transform="translate(33.8 82.2)" stroke="#3FBF55"/>
</g>
</g>
<g id="Vector_19">
<path d="M -3.05176e-06 137.7L -3.05176e-06 6.10352e-06" stroke-width="4.5312" stroke-miterlimit="10" stroke-linecap="round" stroke-linejoin="round" transform="translate(58.6 9.90002)" stroke="#3FBF55"/>
</g>
<g id="Vector_20">
<path d="M 7.9 -3.05176e-06L 11.9 6.8L 15.8 13.7L 7.9 13.7L 3.05176e-06 13.7L 3.9 6.8L 7.9 -3.05176e-06Z" transform="translate(50.7 1)" fill="#3FBF55"/>
<path d="M 7.9 -3.05176e-06L 11.9 6.8L 15.8 13.7L 7.9 13.7L 3.05176e-06 13.7L 3.9 6.8L 7.9 -3.05176e-06Z" stroke-miterlimit="10" transform="translate(50.7 1)" stroke="#3FBF55"/>
</g>
</g>
</g>
</g>
</svg>

