<?xml version="1.0" encoding="UTF-8"?>
<svg width="315px" height="1416px" viewBox="0 0 315 1416" version="1.1" xmlns="http://www.w3.org/2000/svg" xmlns:xlink="http://www.w3.org/1999/xlink">
    <!-- Generator: Sketch 49.3 (51167) - http://www.bohemiancoding.com/sketch -->
    <title>Group</title>
    <desc>Created with Sketch.</desc>
    <defs>
        <polygon id="path-1" points="0 0.864931507 69.1350685 0.864931507 69.1350685 70 0 70"></polygon>
        <polygon id="path-3" points="0.7801 0.8804 50.9001 0.8804 50.9001 51 0.7801 51"></polygon>
        <polygon id="path-5" points="0 85.4773 56.099 85.4773 56.099 0.0003 0 0.0003"></polygon>
    </defs>
    <g id="MobileView" stroke="none" stroke-width="1" fill="none" fill-rule="evenodd">
        <g id="Feature_roadmap" transform="translate(-32.000000, -282.000000)">
            <g id="Group" transform="translate(33.000000, 283.000000)">
                <text id="Big-brand-for-all-SU" opacity="0.8" font-family="HelveticaNeue-Light, Helvetica Neue" font-size="14" font-weight="300" line-spacing="20" fill="#0E1111">
                    <tspan x="191.778" y="114">Big brand for all SU</tspan>
                    <tspan x="179.85" y="134">Release of Basketball</tspan>
                    <tspan x="219.82" y="154">Iplay University</tspan>
                </text>
                <text id="Release-of-Ice-Hocke" font-family="HelveticaNeue-Light, Helvetica Neue" font-size="14" font-weight="300" line-spacing="20" fill="#0E1111">
                    <tspan x="173.894" y="506">Release of Ice Hockey</tspan>
                    <tspan x="191.03" y="526">Search function DB</tspan>
                    <tspan x="206.836" y="546">Google Translate </tspan>
                    <tspan x="244.986" y="566">integration</tspan>
                </text>
                <text id="Release-of-Floorball" font-family="HelveticaNeue-Light, Helvetica Neue" font-size="14" font-weight="300" line-spacing="20" fill="#0E1111">
                    <tspan x="190.512" y="862">Release of Floorball</tspan>
                    <tspan x="242.144" y="882">&amp; E-Sports</tspan>
                    <tspan x="232.778" y="902">Legal advice</tspan>
                    <tspan x="208.95" y="922">Iplay Foundation</tspan>
                </text>
                <text id="Release-of-Horse-spo" font-family="HelveticaNeue-Light, Helvetica Neue" font-size="14" font-weight="300" line-spacing="20" fill="#0E1111">
                    <tspan x="169.296" y="1238">Release of Horse sports</tspan>
                </text>
                <text id="Iplay-Chat-Iplay-Gam" font-family="HelveticaNeue-Light, Helvetica Neue" font-size="14" font-weight="300" line-spacing="20" fill="#0E1111">
                    <tspan x="0" y="280">Iplay Chat</tspan>
                    <tspan x="0" y="300">Iplay Games</tspan>
                    <tspan x="0" y="320">Referee, Sponsor, </tspan>
                    <tspan x="0" y="340">company and </tspan>
                    <tspan x="0" y="360">Institue profiles</tspan>
                </text>
                <text id="Avatar-Mental-coache" font-family="HelveticaNeue-Light, Helvetica Neue" font-size="14" font-weight="300" line-spacing="20" fill="#0E1111">
                    <tspan x="0" y="680">Avatar</tspan>
                    <tspan x="0" y="700">Mental coaches</tspan>
                    <tspan x="0" y="720">E-learning</tspan>
                </text>
                <text id="Release-of-Skiing-Do" font-family="HelveticaNeue-Light, Helvetica Neue" font-size="14" font-weight="300" line-spacing="20" fill="#0E1111">
                    <tspan x="0" y="1063">Release of Skiing </tspan>
                    <tspan x="0" y="1083">Downhill and </tspan>
                    <tspan x="0" y="1103">Cross country</tspan>
                </text>
                <text id="Release-of-Sailing" font-family="HelveticaNeue-Light, Helvetica Neue" font-size="14" font-weight="300" line-spacing="20" fill="#0E1111">
                    <tspan x="0" y="1410">Release of Sailing</tspan>
                </text>
                <path d="M154.5,0.496272738 L154.5,1374.00082" id="Line" stroke="#000000" stroke-width="2" opacity="0.8" stroke-linecap="square"></path>
                <text id="MAY-2018" opacity="0.8" font-family="HelveticaNeue-Bold, Helvetica Neue" font-size="28" font-weight="bold" fill="#000000">
                    <tspan x="42.41" y="49">MAY </tspan>
                    <tspan x="41.864" y="82">2018</tspan>
                </text>
                <text id="JUN-2018" opacity="0.8" font-family="HelveticaNeue-Bold, Helvetica Neue" font-size="28" font-weight="bold" fill="#000000">
                    <tspan x="206.468" y="222">JUN </tspan>
                    <tspan x="203.864" y="255">2018</tspan>
                </text>
                <text id="SEP-2018" opacity="0.8" font-family="HelveticaNeue-Bold, Helvetica Neue" font-size="28" font-weight="bold" fill="#000000">
                    <tspan x="45.504" y="428">SEP </tspan>
                    <tspan x="41.864" y="461">2018</tspan>
                </text>
                <text id="OCT-2018" opacity="0.8" font-family="HelveticaNeue-Bold, Helvetica Neue" font-size="28" font-weight="bold" fill="#000000">
                    <tspan x="205.18" y="614">OCT </tspan>
                    <tspan x="203.864" y="647">2018</tspan>
                </text>
                <text id="NOV-2018" opacity="0.8" font-family="HelveticaNeue-Bold, Helvetica Neue" font-size="28" font-weight="bold" fill="#000000">
                    <tspan x="42.914" y="788">NOV </tspan>
                    <tspan x="41.864" y="821">2018</tspan>
                </text>
                <text id="DEC-2018" opacity="0.8" font-family="HelveticaNeue-Bold, Helvetica Neue" font-size="28" font-weight="bold" fill="#000000">
                    <tspan x="205.18" y="990">DEC </tspan>
                    <tspan x="203.864" y="1023">2018</tspan>
                </text>
                <text id="JAN-2018" opacity="0.8" font-family="HelveticaNeue-Bold, Helvetica Neue" font-size="28" font-weight="bold" fill="#000000">
                    <tspan x="46.252" y="1171">JAN </tspan>
                    <tspan x="42.864" y="1204">2018</tspan>
                </text>
                <text id="FEB-2018" opacity="0.8" font-family="HelveticaNeue-Bold, Helvetica Neue" font-size="28" font-weight="bold" fill="#000000">
                    <tspan x="208.77" y="1326">FEB </tspan>
                    <tspan x="204.864" y="1359">2018</tspan>
                </text>
                <path d="M155.998134,54.5 L205,54.5" id="Line-2" stroke="#000000" stroke-width="2" opacity="0.8" stroke-linecap="square"></path>
                <path d="M103.998134,228.5 L153,228.5" id="Line-2-Copy" stroke="#000000" stroke-width="2" opacity="0.8" stroke-linecap="square"></path>
                <path d="M155.998134,434.5 L205,434.5" id="Line-2-Copy-2" stroke="#000000" stroke-width="2" opacity="0.8" stroke-linecap="square"></path>
                <path d="M103.998134,619.5 L153,619.5" id="Line-2-Copy-3" stroke="#000000" stroke-width="2" opacity="0.8" stroke-linecap="square"></path>
                <path d="M155.998134,794.5 L205,794.5" id="Line-2-Copy-4" stroke="#000000" stroke-width="2" opacity="0.8" stroke-linecap="square"></path>
                <path d="M103.998134,995.5 L153,995.5" id="Line-2-Copy-5" stroke="#000000" stroke-width="2" opacity="0.8" stroke-linecap="square"></path>
                <path d="M155.998134,1176.5 L205,1176.5" id="Line-2-Copy-6" stroke="#000000" stroke-width="2" opacity="0.8" stroke-linecap="square"></path>
                <path d="M103.998134,1331.5 L153,1331.5" id="Line-2-Copy-7" stroke="#000000" stroke-width="2" opacity="0.8" stroke-linecap="square"></path>
                <g id="Page-1" transform="translate(219.000000, 1140.000000)" stroke="#3FBF55" stroke-linecap="round" stroke-linejoin="round" stroke-width="4">
                    <path d="M73.1119,73.55 C73.1119,62.229 61.4839,54.579 57.5069,50.448 C53.5289,46.318 58.2719,41.88 58.2719,41.88 C63.4729,45.246 69.8989,41.88 69.8989,41.88 C69.8989,41.88 71.5819,43.105 76.7839,46.47 C81.9859,49.836 86.4229,38.515 86.4229,38.515 C87.4929,36.22 85.9639,33.925 85.0459,33.16 C84.1279,32.395 70.2049,22.145 70.3579,21.227 C70.5109,20.309 69.7459,17.096 67.9099,15.26 C66.0739,13.424 59.1899,10.517 57.4889,9.752 C55.7899,8.987 56.4359,8.222 56.8949,5.621 C57.3539,3.02 57.9659,0.725 56.8949,0.113 C55.8229,-0.499 52.4579,1.49 50.1629,3.173 C47.8679,4.856 45.5729,10.363 45.5729,10.363 C3.3469,26.735 22.0119,73.55 22.0119,73.55" id="Stroke-1"></path>
                    <path d="M47.4947,6.5344 C47.4947,6.5344 22.7947,9.2954 14.7667,30.5674 C6.7397,51.8404 9.8067,72.9744 -0.0003,73.5504" id="Stroke-3"></path>
                </g>
                <g id="Page-1" transform="translate(239.000000, 19.000000)">
                    <g id="Group-3" transform="translate(0.000000, 0.094260)">
                        <mask id="mask-2" fill="white">
                            <use xlink:href="#path-1"></use>
                        </mask>
                        <g id="Clip-2"></g>
                        <path d="M34.5673425,0.864931507 C15.4765205,0.864931507 -0.000191780822,16.3416438 -0.000191780822,35.4324658 C-0.000191780822,54.5232877 15.4765205,70 34.5673425,70 C53.6591233,70 69.1358356,54.5232877 69.1358356,35.4324658 C69.1358356,16.3416438 53.6591233,0.864931507 34.5673425,0.864931507 M34.5673425,4.70054795 C51.5130959,4.70054795 65.3002192,18.4867123 65.3002192,35.4324658 C65.3002192,52.3782192 51.5130959,66.1643836 34.5673425,66.1643836 C17.621589,66.1643836 3.83542466,52.3782192 3.83542466,35.4324658 C3.83542466,18.4867123 17.621589,4.70054795 34.5673425,4.70054795" id="Fill-1" fill="#3FBF55" mask="url(#mask-2)"></path>
                    </g>
                    <path d="M34.5673425,0.959191781 L34.5673425,70.0942603" id="Stroke-4" stroke="#3FBF55" stroke-width="3"></path>
                    <path d="M11.7025616,57.1309315 C17.7963973,51.7533973 25.8013288,48.4892877 34.5676301,48.4892877 C43.3339315,48.4892877 51.338863,51.7533973 57.4317397,57.1309315" id="Stroke-9" stroke="#3FBF55" stroke-width="3"></path>
                    <path d="M57.4322192,13.922137 C51.3393425,19.2996712 43.334411,22.5637808 34.5671507,22.5637808 C25.8018082,22.5637808 17.7968767,19.2996712 11.7030411,13.922137" id="Stroke-11" stroke="#3FBF55" stroke-width="3"></path>
                </g>
                <path d="M241.5,54.5 L305.531242,54.5" id="Line-3" stroke="#3FBF55" stroke-width="3" stroke-linecap="square"></path>
                <g id="Page-1" transform="translate(2.000000, 200.000000)">
                    <path d="M51.0214171,28.9299506 C53.8806116,40.7315 46.4820282,52.5800441 34.4951296,55.395028 C22.5082311,58.2111867 10.4735997,50.9270048 7.61440522,39.1254554 C4.75401738,27.3239059 12.1537942,15.4741869 24.1406927,12.6580282 L51.9689131,6.12341221 L53.1646197,11.0566831 L63.6574817,6.516993 L62.9379098,3.54692661 L78.0369867,0 L81,12.2268517 L51.0214171,28.9299506 Z" id="Stroke-1" stroke="#3FBF55" stroke-width="3.397" stroke-linecap="round" stroke-linejoin="round"></path>
                    <path d="M29.010846,21.0000003 C28.0125637,21.0000003 26.9974631,21.1165276 25.9835638,21.3579913 C19.0015937,23.0242113 14.6925217,30.0338679 16.3575269,37.0146931 C17.7822717,42.9840133 23.1100482,47 28.9892226,47 C29.9875049,47 31.0026055,46.8834727 32.0153035,46.642009 C38.9972736,44.975789 43.3075469,37.964931 41.6425417,30.9841059 C40.2177969,25.0147856 34.8900204,20.998799 29.010846,21.0000003 M29.0120473,25.8605094 C32.7865397,25.8605094 36.036063,28.4313175 36.9142151,32.1109367 C37.4187621,34.2252462 37.0691831,36.4092317 35.9315496,38.2604538 C34.7927149,40.1116759 33.0015729,41.4090931 30.8872805,41.9136442 C30.2626032,42.0626069 29.6235103,42.1394909 28.9892226,42.1394909 C25.2135289,42.1394909 21.9640056,39.5674815 21.0858535,35.8878622 C20.0455256,31.5234951 22.7484562,27.1266924 27.1115868,26.0851548 C27.7374654,25.9349907 28.3765583,25.8605094 29.0120473,25.8605094" id="Fill-3" fill="#3FBF55"></path>
                    <path d="M9,46.7905623 C5.07641167,47.765499 1.1365958,45.2436949 0.201193796,41.1593374 C-0.735367317,37.07498 1.68717319,32.9749367 5.61076151,32" id="Stroke-5" stroke="#3FBF55" stroke-width="3.397" stroke-linecap="round" stroke-linejoin="round"></path>
                </g>
                <g id="Page-1" transform="translate(265.000000, 434.000000) scale(-1, 1) translate(-265.000000, -434.000000) translate(222.000000, 386.000000)" stroke="#3FBF55" stroke-linecap="round">
                    <path d="M40.7982,88.6123 C44.1902,87.6523 47.1512,85.5763 49.5272,83.3563 C52.9702,80.1403 55.5872,76.1413 57.3702,71.7803 L85.3382,3.3643 C85.6412,2.6223 85.3022,1.7733 84.5722,1.4453 L82.7632,0.6323 C82.0102,0.2923 81.1252,0.6333 80.7922,1.3883 L51.1872,68.7443 C51.1872,68.7443 46.3452,78.7883 33.1722,76.9493 L25.5772,75.9443 C23.5982,75.6823 21.6192,76.4373 20.3342,77.9663 C19.2592,79.2423 18.0942,80.8883 17.5212,82.5583 C16.7242,84.8743 18.3442,87.3223 20.7762,87.6043 C25.9292,88.2013 37.5452,89.5343 40.7982,88.6123 Z" id="Stroke-1" stroke-width="3"></path>
                    <path d="M17.3163,89.9092 C17.3163,91.0552 13.4403,91.9832 8.6583,91.9832 C3.8763,91.9832 0.0003,91.0552 0.0003,89.9092 C0.0003,88.7632 3.8763,87.8352 8.6583,87.8352 C13.4403,87.8352 17.3163,88.7632 17.3163,89.9092 Z" id="Stroke-3" stroke-width="2" stroke-linejoin="round"></path>
                    <path d="M17.3163,93.414 C17.3163,94.56 13.4403,95.488 8.6583,95.488 C3.8763,95.488 0.0003,94.56 0.0003,93.414" id="Stroke-5" stroke-width="2" stroke-linejoin="round"></path>
                    <path d="M17.3163,93.414 L17.3163,89.909" id="Stroke-7" stroke-width="2" stroke-linejoin="round"></path>
                    <path d="M-0.0001,89.9092 L-0.0001,93.4142" id="Stroke-9" stroke-width="2" stroke-linejoin="round"></path>
                </g>
                <g id="Page-1" transform="translate(241.000000, 751.000000)">
                    <path d="M60.8654,16.3833 C59.6104,9.6083 53.0994,5.1323 46.3244,6.3883 C42.5134,7.0943 39.4294,9.4623 37.6844,12.6063 L20.8394,15.5653 C18.1004,13.3463 14.4444,12.2943 10.7064,12.9873 C3.9304,14.2413 -0.5446,20.7523 0.7114,27.5283" id="Stroke-1" stroke="#3FBF55" stroke-width="3" stroke-linecap="round" stroke-linejoin="round"></path>
                    <path d="M60.8654,16.3833 L64.4124,35.5293 C64.6604,36.8703 64.3664,38.2563 63.5934,39.3813 C61.9074,41.8333 58.5004,42.3503 56.1644,40.5073 L41.9554,29.3003 C41.0784,28.6103 39.9474,28.3293 38.8494,28.5333 L25.6174,30.9853 C24.5204,31.1883 23.5644,31.8553 22.9934,32.8143 L13.7414,48.3663 C12.2204,50.9233 8.8544,51.6623 6.4034,49.9773 C5.2784,49.2033 4.5064,48.0153 4.2584,46.6733 L0.7114,27.5283" id="Stroke-3" stroke="#3FBF55" stroke-width="3" stroke-linecap="round" stroke-linejoin="round"></path>
                    <path d="M12.4353,20.1382 L14.3063,30.2362" id="Stroke-5" stroke="#3FBF55" stroke-width="1.916" stroke-linecap="round" stroke-linejoin="round"></path>
                    <path d="M49.467,13.146 C49.664,14.21 48.961,15.233 47.898,15.429 C46.834,15.626 45.811,14.924 45.614,13.86 C45.417,12.796 46.12,11.774 47.184,11.577 C48.248,11.38 49.27,12.083 49.467,13.146 Z" id="Stroke-7" stroke="#3FBF55" stroke-width="2" stroke-linecap="round" stroke-linejoin="round"></path>
                    <path d="M51.3562,23.3442 C51.5532,24.4072 50.8512,25.4302 49.7872,25.6272 C48.7232,25.8242 47.7012,25.1212 47.5032,24.0582 C47.3062,22.9932 48.0092,21.9722 49.0732,21.7752 C50.1372,21.5772 51.1592,22.2812 51.3562,23.3442 Z" id="Stroke-9" stroke="#3FBF55" stroke-width="2" stroke-linecap="round" stroke-linejoin="round"></path>
                    <path d="M53.9411,19.5835 C52.8771,19.7805 51.8551,19.0785 51.6581,18.0145 C51.4611,16.9505 52.1631,15.9285 53.2271,15.7305 C54.2911,15.5345 55.3131,16.2365 55.5101,17.3005 C55.7071,18.3645 55.0041,19.3865 53.9411,19.5835 Z" id="Stroke-11" stroke="#3FBF55" stroke-width="2" stroke-linecap="round" stroke-linejoin="round"></path>
                    <path d="M43.7434,21.4731 C42.6794,21.6701 41.6574,20.9671 41.4604,19.9041 C41.2634,18.8401 41.9654,17.8181 43.0294,17.6201 C44.0934,17.4231 45.1154,18.1261 45.3124,19.1901 C45.5094,20.2531 44.8064,21.2761 43.7434,21.4731 Z" id="Stroke-13" stroke="#3FBF55" stroke-width="2" stroke-linecap="round" stroke-linejoin="round"></path>
                    <path d="M29.3279,14.0737 L26.8129,0.4997" id="Stroke-15" stroke="#3FBF55" stroke-width="3" stroke-linecap="round" stroke-linejoin="round"></path>
                    <path d="M18.4196,24.2515 L8.3216,26.1225" id="Stroke-17" stroke="#3FBF55" stroke-width="1.916" stroke-linecap="round" stroke-linejoin="round"></path>
                    <path d="M25.3757,20.8911 L28.0507,20.3961" id="Stroke-19" stroke="#3FBF55" stroke-width="1.916" stroke-linecap="round" stroke-linejoin="round"></path>
                    <path d="M32.7854,19.5181 L35.4604,19.0231" id="Stroke-21" stroke="#3FBF55" stroke-width="1.916" stroke-linecap="round" stroke-linejoin="round"></path>
                    <path d="M30.8401,83.4556 C17.9521,83.4556 7.4661,72.9706 7.4661,60.0816 C7.4661,47.1936 17.9521,36.7086 30.8401,36.7086 C43.7281,36.7086 54.2141,47.1936 54.2141,60.0816 C54.2141,72.9706 43.7281,83.4556 30.8401,83.4556" id="Fill-23" fill="#F5F5F5"></path>
                    <g id="Group-27" transform="translate(5.000000, 34.141600)">
                        <mask id="mask-4" fill="white">
                            <use xlink:href="#path-3"></use>
                        </mask>
                        <g id="Clip-26"></g>
                        <path d="M25.8401,0.8804 C12.0001,0.8804 0.7801,12.1004 0.7801,25.9404 C0.7801,39.7804 12.0001,51.0004 25.8401,51.0004 C39.6801,51.0004 50.9001,39.7804 50.9001,25.9404 C50.9001,12.1004 39.6801,0.8804 25.8401,0.8804 M25.8401,4.2524 C37.7981,4.2524 47.5271,13.9824 47.5271,25.9404 C47.5271,37.8994 37.7981,47.6274 25.8401,47.6274 C13.8821,47.6274 4.1531,37.8994 4.1531,25.9404 C4.1531,13.9824 13.8821,4.2524 25.8401,4.2524" id="Fill-25" fill="#3FBF55" mask="url(#mask-4)"></path>
                    </g>
                    <path d="M42.2693,54.3179 C40.7053,55.8819 38.1683,55.8819 36.6043,54.3179 C35.0403,52.7539 35.0403,50.2169 36.6043,48.6529 C38.1683,47.0889 40.7053,47.0889 42.2693,48.6529 C43.8333,50.2169 43.8333,52.7539 42.2693,54.3179 Z" id="Stroke-28" stroke="#3FBF55" stroke-width="1.658" stroke-linecap="round" stroke-linejoin="round"></path>
                    <path d="M53.7116,62.9145 C52.1476,64.4785 49.6106,64.4785 48.0466,62.9145 C46.4826,61.3505 46.4826,58.8135 48.0466,57.2495 C49.6106,55.6855 52.1476,55.6855 53.7116,57.2495 C55.2756,58.8135 55.2756,61.3505 53.7116,62.9145 Z" id="Stroke-30" stroke="#3FBF55" stroke-width="1.658" stroke-linecap="round" stroke-linejoin="round"></path>
                    <path d="M33.6726,42.8638 C32.1086,44.4278 29.5716,44.4278 28.0076,42.8638 C26.4436,41.2998 26.4436,38.7628 28.0076,37.1988 C29.5716,35.6348 32.1086,35.6348 33.6726,37.1988 C35.2366,38.7628 35.2366,41.2998 33.6726,42.8638 Z" id="Stroke-32" stroke="#3FBF55" stroke-width="1.658" stroke-linecap="round" stroke-linejoin="round"></path>
                    <path d="M25.0759,71.5112 C23.5119,73.0752 20.9749,73.0752 19.4109,71.5112 C17.8469,69.9472 17.8469,67.4102 19.4109,65.8462 C20.9749,64.2822 23.5119,64.2822 25.0759,65.8462 C26.6399,67.4102 26.6399,69.9472 25.0759,71.5112 Z" id="Stroke-34" stroke="#3FBF55" stroke-width="1.658" stroke-linecap="round" stroke-linejoin="round"></path>
                    <path d="M25.0759,54.3179 C23.5119,55.8819 20.9749,55.8819 19.4109,54.3179 C17.8469,52.7539 17.8469,50.2169 19.4109,48.6529 C20.9749,47.0889 23.5119,47.0889 25.0759,48.6529 C26.6399,50.2169 26.6399,52.7539 25.0759,54.3179 Z" id="Stroke-36" stroke="#3FBF55" stroke-width="1.658" stroke-linecap="round" stroke-linejoin="round"></path>
                    <path d="M42.2693,71.5112 C40.7053,73.0752 38.1683,73.0752 36.6043,71.5112 C35.0403,69.9472 35.0403,67.4102 36.6043,65.8462 C38.1683,64.2822 40.7053,64.2822 42.2693,65.8462 C43.8333,67.4102 43.8333,69.9472 42.2693,71.5112 Z" id="Stroke-38" stroke="#3FBF55" stroke-width="1.658" stroke-linecap="round" stroke-linejoin="round"></path>
                    <path d="M33.6726,62.9145 C32.1086,64.4785 29.5716,64.4785 28.0076,62.9145 C26.4436,61.3505 26.4436,58.8135 28.0076,57.2495 C29.5716,55.6855 32.1086,55.6855 33.6726,57.2495 C35.2366,58.8135 35.2366,61.3505 33.6726,62.9145 Z" id="Stroke-40" stroke="#3FBF55" stroke-width="1.658" stroke-linecap="round" stroke-linejoin="round"></path>
                    <path d="M13.8801,62.9145 C12.3161,64.4785 9.7791,64.4785 8.2151,62.9145 C6.6511,61.3505 6.6511,58.8135 8.2151,57.2495 C9.7791,55.6855 12.3161,55.6855 13.8801,57.2495 C15.4441,58.8135 15.4441,61.3505 13.8801,62.9145 Z" id="Stroke-42" stroke="#3FBF55" stroke-width="1.658" stroke-linecap="round" stroke-linejoin="round"></path>
                    <path d="M33.6726,82.9653 C32.1086,84.5293 29.5716,84.5293 28.0076,82.9653 C26.4436,81.4013 26.4436,78.8643 28.0076,77.3003 C29.5716,75.7363 32.1086,75.7363 33.6726,77.3003 C35.2366,78.8643 35.2366,81.4013 33.6726,82.9653 Z" id="Stroke-44" stroke="#3FBF55" stroke-width="1.658" stroke-linecap="round" stroke-linejoin="round"></path>
                </g>
                <g id="Page-1" transform="translate(0.000000, 953.000000)">
                    <path d="M24.3811,42.9779 L24.1341,81.6469 C24.1261,82.8879 23.1171,83.8909 21.8761,83.8909 L18.3941,83.8909 C17.1511,83.8909 16.1411,82.8849 16.1361,81.6419 L15.9731,42.7389 L15.1841,6.5279 C15.1841,3.7989 17.3971,1.5869 20.1261,1.5869 C22.8551,1.5869 25.0671,3.7989 25.0671,6.5279 L24.3811,42.9779 Z" id="Stroke-1" stroke="#3FBF55" stroke-width="3.174" stroke-linecap="round" stroke-linejoin="round"></path>
                    <path d="M15.9734,42.7386 L23.5924,42.7386" id="Stroke-3" stroke="#3FBF55" stroke-width="3.174" stroke-linecap="round" stroke-linejoin="round"></path>
                    <path d="M16.0002,49.221 L23.5522,49.221" id="Stroke-5" stroke="#3FBF55" stroke-width="3.174" stroke-linecap="round" stroke-linejoin="round"></path>
                    <path d="M40.2268,42.9779 L39.9798,81.6469 C39.9718,82.8879 38.9628,83.8909 37.7218,83.8909 L34.2398,83.8909 C32.9968,83.8909 31.9868,82.8849 31.9818,81.6419 L31.8188,42.7389 L31.0308,6.5279 C31.0308,3.7989 33.2428,1.5869 35.9718,1.5869 C38.7008,1.5869 40.9128,3.7989 40.9128,6.5279 L40.2268,42.9779 Z" id="Stroke-7" stroke="#3FBF55" stroke-width="3.174" stroke-linecap="round" stroke-linejoin="round"></path>
                    <path d="M32.4807,42.7386 L39.4387,42.7386" id="Stroke-9" stroke="#3FBF55" stroke-width="3.174" stroke-linecap="round" stroke-linejoin="round"></path>
                    <path d="M31.8464,49.221 L39.3984,49.221" id="Stroke-11" stroke="#3FBF55" stroke-width="3.174" stroke-linecap="round" stroke-linejoin="round"></path>
                    <path d="M49.8952,39.3431 L49.8952,79.4411" id="Stroke-13" stroke="#3FBF55" stroke-width="3" stroke-linecap="round" stroke-linejoin="round"></path>
                    <path d="M44.6911,73.3402 L55.0991,73.3402" id="Stroke-15" stroke="#3FBF55" stroke-width="2" stroke-linecap="round" stroke-linejoin="round"></path>
                    <mask id="mask-6" fill="white">
                        <use xlink:href="#path-5"></use>
                    </mask>
                    <g id="Clip-18"></g>
                    <polygon id="Stroke-17" stroke="#3FBF55" stroke-width="2.433" stroke-linecap="round" stroke-linejoin="round" mask="url(#mask-6)" points="47.839 38.6503 51.952 38.6503 51.952 18.9123 47.839 18.9123"></polygon>
                    <path d="M6.2038,39.3431 L6.2038,79.4411" id="Stroke-19" stroke="#3FBF55" stroke-width="3" stroke-linecap="round" stroke-linejoin="round" mask="url(#mask-6)"></path>
                    <path d="M1.0002,73.3402 L11.4082,73.3402" id="Stroke-20" stroke="#3FBF55" stroke-width="2" stroke-linecap="round" stroke-linejoin="round" mask="url(#mask-6)"></path>
                    <polygon id="Stroke-21" stroke="#3FBF55" stroke-width="2.433" stroke-linecap="round" stroke-linejoin="round" mask="url(#mask-6)" points="4.147 38.6503 8.26 38.6503 8.26 18.9123 4.147 18.9123"></polygon>
                </g>
                <g id="Page-1" transform="translate(1.000000, 1277.000000)" stroke="#3FBF55" stroke-linecap="round" stroke-linejoin="round">
                    <path d="M38.8016,2.5559 C38.8016,2.5559 86.6146,47.6739 86.4176,94.8299 C86.4106,96.3699 85.5296,97.7999 84.1416,98.4669 C79.7976,100.5539 67.4106,103.0129 33.1556,96.0839 C33.1556,96.0839 59.8556,21.0749 38.8016,2.5559 Z" id="Stroke-1" stroke-width="3.929"></path>
                    <path d="M38.6292,1.804 L33.3592,0.309 C33.3592,0.309 43.5912,21.825 23.4712,95.03 C23.4712,95.03 31.3192,95.427 33.1552,94.565" id="Stroke-3" stroke-width="2.619"></path>
                    <path d="M37.8133,2.5559 C37.8133,2.5559 47.6883,35.0079 41.4543,67.4609" id="Stroke-5" stroke-width="2.619"></path>
                    <path d="M81.3201,100.6565 L81.9181,103.4285 L52.6601,107.3095 C52.6601,107.3095 45.9141,105.7635 42.7301,106.5595 C39.5461,107.3565 38.4291,106.7125 36.5391,106.4145 C34.6481,106.1155 32.3591,106.3145 29.8711,107.3095 C27.3831,108.3045 24.0991,109.0015 22.3081,108.6035 C20.5171,108.2055 14.2471,108.3045 14.2471,108.3045 L12.1051,100.6565 L33.1551,97.1595" id="Stroke-7" stroke-width="2.619"></path>
                    <path d="M68.6961,101.01 L12.1051,100.656" id="Stroke-9" stroke-width="2.619"></path>
                    <path d="M14.2474,108.305 C14.2474,108.305 9.2784,109.264 6.6744,107.383 C4.0714,105.503 0.3094,108.717 0.3094,108.717" id="Stroke-11" stroke-width="2.619"></path>
                    <path d="M81.9178,103.429 C81.9178,103.429 85.3168,103.515 87.0128,104.219 C87.5198,104.429 88.7888,104.632 90.2968,103.64" id="Stroke-13" stroke-width="2.619"></path>
                </g>
                <g id="Page-1" transform="translate(2.000000, 584.000000)" stroke="#3FBF55" stroke-width="4">
                    <path d="M37.2722,17.9923 C37.2722,27.9293 29.5072,35.9843 19.9302,35.9843 C10.3522,35.9843 2.5882,27.9293 2.5882,17.9923 C2.5882,8.0553 10.3522,0.0003 19.9302,0.0003 C29.5072,0.0003 37.2722,8.0553 37.2722,17.9923 Z" id="Stroke-1"></path>
                    <path d="M39.8601,71.6457 L0.0001,71.6457 L0.0001,51.7967 C0.0001,43.0637 7.0801,35.9847 15.8121,35.9847 L24.0481,35.9847 C32.7811,35.9847 39.8601,43.0637 39.8601,51.7967 L39.8601,71.6457 Z" id="Stroke-3"></path>
                </g>
            </g>
        </g>
    </g>
</svg>