<?xml version="1.0" encoding="UTF-8"?>
<svg width="1562px" height="469px" viewBox="0 0 1562 469" version="1.1" xmlns="http://www.w3.org/2000/svg" xmlns:xlink="http://www.w3.org/1999/xlink">
    <!-- Generator: Sketch 49.2 (51160) - http://www.bohemiancoding.com/sketch -->
    <title>Group</title>
    <desc>Created with Sketch.</desc>
    <defs>
        <polygon id="path-1" points="0 0.974570712 77.0362192 0.974570712 77.0362192 78.8732394 0 78.8732394"></polygon>
        <polygon id="path-3" points="0.876112308 0.991714943 57.1647277 0.991714943 57.1647277 57.4482759 0.876112308 57.4482759"></polygon>
        <polygon id="path-5" points="0 95.4165209 62.9883509 95.4165209 62.9883509 0.000334883721 0 0.000334883721"></polygon>
    </defs>
    <g id="DesktopView" stroke="none" stroke-width="1" fill="none" fill-rule="evenodd">
        <g id="RoadmapDesktop" transform="translate(-134.000000, -380.000000)">
            <g id="Group" transform="translate(121.000000, 374.000000)">
                <text id="Big-brand-for-all-SU" opacity="0.8" font-family="HelveticaNeue-Light, Helvetica Neue" font-size="14" font-weight="300" line-spacing="20" fill="#0E1111">
                    <tspan x="18.389" y="15">Big brand for all SU</tspan>
                    <tspan x="12.425" y="35">Release of Basketball</tspan>
                    <tspan x="32.41" y="55">Iplay University</tspan>
                </text>
                <text id="Release-of-Ice-Hocke" font-family="HelveticaNeue-Light, Helvetica Neue" font-size="14" font-weight="300" line-spacing="20" fill="#0E1111">
                    <tspan x="439.947" y="16">Release of Ice Hockey</tspan>
                    <tspan x="448.515" y="36">Search function DB</tspan>
                    <tspan x="456.418" y="56">Google Translate </tspan>
                    <tspan x="475.493" y="76">integration</tspan>
                </text>
                <text id="Release-of-Floorball" font-family="HelveticaNeue-Light, Helvetica Neue" font-size="14" font-weight="300" line-spacing="20" fill="#0E1111">
                    <tspan x="850.756" y="14">Release of Floorball</tspan>
                    <tspan x="876.572" y="34">&amp; E-Sports</tspan>
                    <tspan x="820.418" y="54">Legal advice Iplay Foundation</tspan>
                </text>
                <text id="Release-of-Horse-spo" font-family="HelveticaNeue-Light, Helvetica Neue" font-size="14" font-weight="300" line-spacing="20" fill="#0E1111">
                    <tspan x="1265.648" y="56">Release of Horse sports</tspan>
                </text>
                <text id="Iplay-ChatIplay-Game" font-family="HelveticaNeue-Light, Helvetica Neue" font-size="14" font-weight="300" line-spacing="20" fill="#0E1111">
                    <tspan x="192.544" y="430">Iplay ChatIplay GamesReferee, </tspan>
                    <tspan x="214.846" y="450">Sponsor, company and </tspan>
                    <tspan x="240.151" y="470">Institue profiles</tspan>
                </text>
                <text id="Avatar-Mental-coache" transform="translate(714.000000, 448.500000) rotate(-360.000000) translate(-714.000000, -448.500000) " font-family="HelveticaNeue-Light, Helvetica Neue" font-size="14" font-weight="300" line-spacing="20" fill="#0E1111">
                    <tspan x="694.932" y="429">Avatar</tspan>
                    <tspan x="666.365" y="449">Mental coaches</tspan>
                    <tspan x="683.662" y="469">E-learning</tspan>
                </text>
                <text id="Release-of-Skiing-Do" font-family="HelveticaNeue-Light, Helvetica Neue" font-size="14" font-weight="300" line-spacing="20" fill="#0E1111">
                    <tspan x="1086.889" y="430">Release of Skiing </tspan>
                    <tspan x="1099.867" y="450">Downhill and </tspan>
                    <tspan x="1096.36" y="470">Cross country</tspan>
                </text>
                <text id="Release-of-Sailing" transform="translate(1522.000000, 429.500000) rotate(-360.000000) translate(-1522.000000, -429.500000) " font-family="HelveticaNeue-Light, Helvetica Neue" font-size="14" font-weight="300" line-spacing="20" fill="#0E1111">
                    <tspan x="1468.961" y="428">Release of Sailing</tspan>
                </text>
                <path d="M790.5,-531.443814 L790.5,1007.88019" id="Line" stroke="#000000" stroke-width="2" opacity="0.8" stroke-linecap="square" transform="translate(790.500000, 238.500000) rotate(-90.000000) translate(-790.500000, -238.500000) "></path>
                <text id="MAY-2018" opacity="0.8" font-family="HelveticaNeue-Bold, Helvetica Neue" font-size="28" font-weight="bold" fill="#000000">
                    <tspan x="47.41" y="281">MAY </tspan>
                    <tspan x="46.864" y="314">2018</tspan>
                </text>
                <text id="JUN-2018" opacity="0.8" transform="translate(274.000000, 192.000000) rotate(-360.000000) translate(-274.000000, -192.000000) " font-family="HelveticaNeue-Bold, Helvetica Neue" font-size="28" font-weight="bold" fill="#000000">
                    <tspan x="245.468" y="186">JUN </tspan>
                    <tspan x="242.864" y="219">2018</tspan>
                </text>
                <text id="SEP-2018" opacity="0.8" transform="translate(506.000000, 287.000000) rotate(-360.000000) translate(-506.000000, -287.000000) " font-family="HelveticaNeue-Bold, Helvetica Neue" font-size="28" font-weight="bold" fill="#000000">
                    <tspan x="478.504" y="281">SEP </tspan>
                    <tspan x="474.864" y="314">2018</tspan>
                </text>
                <text id="OCT-2018" opacity="0.8" font-family="HelveticaNeue-Bold, Helvetica Neue" font-size="28" font-weight="bold" fill="#000000">
                    <tspan x="690.18" y="186">OCT </tspan>
                    <tspan x="688.864" y="219">2018</tspan>
                </text>
                <text id="NOV-2018" opacity="0.8" transform="translate(913.000000, 288.000000) rotate(-360.000000) translate(-913.000000, -288.000000) " font-family="HelveticaNeue-Bold, Helvetica Neue" font-size="28" font-weight="bold" fill="#000000">
                    <tspan x="882.914" y="282">NOV </tspan>
                    <tspan x="881.864" y="315">2018</tspan>
                </text>
                <text id="DEC-2018" opacity="0.8" transform="translate(1138.000000, 193.000000) rotate(-360.000000) translate(-1138.000000, -193.000000) " font-family="HelveticaNeue-Bold, Helvetica Neue" font-size="28" font-weight="bold" fill="#000000">
                    <tspan x="1108.18" y="187">DEC </tspan>
                    <tspan x="1106.864" y="220">2018</tspan>
                </text>
                <text id="JAN-2018" opacity="0.8" transform="translate(1340.000000, 288.000000) rotate(-360.000000) translate(-1340.000000, -288.000000) " font-family="HelveticaNeue-Bold, Helvetica Neue" font-size="28" font-weight="bold" fill="#000000">
                    <tspan x="1312.252" y="282">JAN </tspan>
                    <tspan x="1308.864" y="315">2018</tspan>
                </text>
                <text id="FEB-2018" opacity="0.8" font-family="HelveticaNeue-Bold, Helvetica Neue" font-size="28" font-weight="bold" fill="#000000">
                    <tspan x="1487.77" y="186">FEB </tspan>
                    <tspan x="1483.864" y="219">2018</tspan>
                </text>
                <path d="M54.1179105,210.5 L109,210.5" id="Line-2" stroke="#000000" stroke-width="2" opacity="0.8" stroke-linecap="square" transform="translate(81.000000, 210.500000) rotate(-90.000000) translate(-81.000000, -210.500000) "></path>
                <path d="M249.11791,269.5 L304,269.5" id="Line-2-Copy" stroke="#000000" stroke-width="2" opacity="0.8" stroke-linecap="square" transform="translate(276.000000, 269.500000) rotate(-90.000000) translate(-276.000000, -269.500000) "></path>
                <path d="M480.11791,210.5 L535,210.5" id="Line-2-Copy-2" stroke="#000000" stroke-width="2" opacity="0.8" stroke-linecap="square" transform="translate(507.000000, 210.500000) rotate(-90.000000) translate(-507.000000, -210.500000) "></path>
                <path d="M689.11791,269.5 L744,269.5" id="Line-2-Copy-3" stroke="#000000" stroke-width="2" opacity="0.8" stroke-linecap="square" transform="translate(716.000000, 269.500000) rotate(-90.000000) translate(-716.000000, -269.500000) "></path>
                <path d="M884.11791,210.5 L939,210.5" id="Line-2-Copy-4" stroke="#000000" stroke-width="2" opacity="0.8" stroke-linecap="square" transform="translate(911.000000, 210.500000) rotate(-90.000000) translate(-911.000000, -210.500000) "></path>
                <path d="M1109.11791,269.5 L1164,269.5" id="Line-2-Copy-5" stroke="#000000" stroke-width="2" opacity="0.8" stroke-linecap="square" transform="translate(1136.000000, 269.500000) rotate(-90.000000) translate(-1136.000000, -269.500000) "></path>
                <path d="M1312.11791,210.5 L1367,210.5" id="Line-2-Copy-6" stroke="#000000" stroke-width="2" opacity="0.8" stroke-linecap="square" transform="translate(1339.000000, 210.500000) rotate(-90.000000) translate(-1339.000000, -210.500000) "></path>
                <path d="M1486.11791,269.5 L1541,269.5" id="Line-2-Copy-7" stroke="#000000" stroke-width="2" opacity="0.8" stroke-linecap="square" transform="translate(1513.000000, 269.500000) rotate(-90.000000) translate(-1513.000000, -269.500000) "></path>
                <g id="Page-1" transform="translate(1291.000000, 76.000000)" stroke="#3FBF55" stroke-linecap="round" stroke-linejoin="round" stroke-width="4">
                    <path d="M82.3559333,82.4952703 C82.3559333,69.7973919 69.2577264,61.2169865 64.7778874,56.5835676 C60.2969218,51.9512703 65.6396115,46.9735135 65.6396115,46.9735135 C71.4982092,50.7488919 78.736692,46.9735135 78.736692,46.9735135 C78.736692,46.9735135 80.6324851,48.3475 86.4922092,52.1217568 C92.3519333,55.8971351 97.3499333,43.1992568 97.3499333,43.1992568 C98.5552207,40.6251351 96.8328989,38.0510135 95.7988299,37.192973 C94.7647609,36.3349324 79.0813816,24.8383108 79.2537264,23.8086622 C79.4260713,22.7790135 78.5643471,19.1752432 76.4962092,17.1159459 C74.4280713,15.0566486 66.6736805,11.7960946 64.7576115,10.9380541 C62.8437954,10.0800135 63.5714736,9.22197297 64.088508,6.30463514 C64.6055425,3.3872973 65.2949218,0.813175676 64.088508,0.126743243 C62.8809678,-0.559689189 59.090508,1.67121622 56.5053356,3.55890541 C53.9201632,5.44659459 51.3349908,11.6233649 51.3349908,11.6233649 C3.77007126,29.9865541 24.7950138,82.4952703 24.7950138,82.4952703" id="Stroke-1"></path>
                    <path d="M53.499777,7.32912432 C53.499777,7.32912432 25.6767885,10.4259216 16.633754,34.2850568 C7.59184598,58.1453135 11.0466276,81.8496649 -0.000337931034,82.4957189" id="Stroke-3"></path>
                </g>
                <g id="Page-1" transform="translate(43.000000, 84.000000)">
                    <g id="Group-3" transform="translate(0.000000, 0.106209)">
                        <mask id="mask-2" fill="white">
                            <use xlink:href="#path-1"></use>
                        </mask>
                        <g id="Clip-2"></g>
                        <path d="M38.5178959,0.974570712 C17.2452658,0.974570712 -0.00021369863,18.4131198 -0.00021369863,39.9239051 C-0.00021369863,61.4346903 17.2452658,78.8732394 38.5178959,78.8732394 C59.7915945,78.8732394 77.037074,61.4346903 77.037074,39.9239051 C77.037074,18.4131198 59.7915945,0.974570712 38.5178959,0.974570712 M38.5178959,5.29639205 C57.4003068,5.29639205 72.7631014,20.8300984 72.7631014,39.9239051 C72.7631014,59.0177117 57.4003068,74.5514181 38.5178959,74.5514181 C19.6354849,74.5514181 4.2737589,59.0177117 4.2737589,39.9239051 C4.2737589,20.8300984 19.6354849,5.29639205 38.5178959,5.29639205" id="Fill-1" fill="#3FBF55" mask="url(#mask-2)"></path>
                    </g>
                    <path d="M38.5178959,1.08077947 L38.5178959,78.9794482" id="Stroke-4" stroke="#3FBF55" stroke-width="3"></path>
                    <path d="M13.0399973,64.3728806 C19.8302712,58.3136871 28.7500521,54.6358171 38.5182164,54.6358171 C48.2863808,54.6358171 57.2061616,58.3136871 63.9953671,64.3728806" id="Stroke-9" stroke="#3FBF55" stroke-width="3"></path>
                    <path d="M63.9959014,15.6869149 C57.2066959,21.7461084 48.2869151,25.4239784 38.5176822,25.4239784 C28.7505863,25.4239784 19.8308055,21.7461084 13.0405315,15.6869149" id="Stroke-11" stroke="#3FBF55" stroke-width="3"></path>
                </g>
                <g id="Page-1" transform="translate(230.000000, 324.000000)">
                    <path d="M65.5139814,37.1956507 C69.184569,52.3690714 59.6863875,67.6029139 44.2978015,71.2221788 C28.9092156,74.8429543 13.459351,65.4775776 9.78876345,50.3041569 C6.11664394,35.1307362 15.6163574,19.8953832 31.0049433,16.2746077 L66.7303614,7.87295856 L68.2653901,14.2157354 L81.7359562,8.378991 L80.8121815,4.56033421 L100.196132,0 L104,15.7202379 L65.5139814,37.1956507 Z" id="Stroke-1" stroke="#3FBF55" stroke-width="3.397" stroke-linecap="round" stroke-linejoin="round"></path>
                    <path d="M37.5137661,27.0000003 C36.2467154,27.0000003 34.9583185,27.1479004 33.6714463,27.4543736 C24.8097151,29.5691913 19.3405083,38.4660632 21.4537842,47.3263412 C23.262114,54.9027862 30.024292,60 37.486321,60 C38.7533717,60 40.0417686,59.8521 41.327116,59.5456268 C50.1888473,57.4308091 55.6595788,48.5324124 53.5463029,39.6721344 C51.737973,32.0956894 44.9757951,26.9984756 37.5137661,27.0000003 M37.5152908,33.1691081 C42.3059927,33.1691081 46.4303876,36.4320568 47.5449653,41.1023428 C48.1853519,43.7858894 47.7416555,46.557871 46.2977361,48.9074991 C44.852292,51.2571271 42.5789194,52.9038489 39.8953945,53.5442407 C39.1025348,53.7333088 38.2913784,53.8308923 37.486321,53.8308923 C32.6940943,53.8308923 28.5696995,50.5664188 27.4551218,45.8961328 C26.1347055,40.3567437 29.5653482,34.7761866 35.1031678,33.4542349 C35.8975522,33.2636421 36.7087086,33.1691081 37.5152908,33.1691081" id="Fill-3" fill="#3FBF55"></path>
                    <path d="M12,59.7347122 C6.7685489,60.9696321 1.51546107,57.7753468 0.268258395,52.6018274 C-0.980489757,47.428308 2.24956425,42.2349198 7.48101535,41" id="Stroke-5" stroke="#3FBF55" stroke-width="3.397" stroke-linecap="round" stroke-linejoin="round"></path>
                </g>
                <g id="Page-1" transform="translate(512.500000, 125.000000) scale(-1, 1) translate(-512.500000, -125.000000) translate(477.000000, 85.000000)" stroke="#3FBF55" stroke-linecap="round">
                    <path d="M33.6450552,74.732329 C36.4828086,73.9181017 38.9599867,72.1573352 40.9477527,70.2744346 C43.8281728,67.5467732 46.0175599,64.1550077 47.5092209,60.4562106 L70.9073013,2.42894596 C71.1607917,1.79961612 70.8771837,1.07953386 70.2664643,0.801339539 L68.7530516,0.111790806 C68.1230904,-0.176581358 67.3826978,0.112638959 67.1041094,0.752994794 L42.3365117,57.8812168 C42.3365117,57.8812168 38.2856856,66.4000698 27.2651295,64.8403156 L20.9111385,63.9879215 C19.2555035,63.7657053 17.5998684,64.4060611 16.524835,65.7028877 C15.625488,66.7851314 14.6508469,68.181192 14.171474,69.5976082 C13.5047024,71.5619315 14.8599974,73.6382111 16.894613,73.8773904 C21.2056224,74.383738 30.9235894,75.5143265 33.6450552,74.732329 Z" id="Stroke-1" stroke-width="3"></path>
                    <path d="M14,75.5 C14,76.3288332 10.8662509,77 7,77 C3.13374913,77 0,76.3288332 0,75.5 C0,74.6711668 3.13374913,74 7,74 C10.8662509,74 14,74.6711668 14,75.5 Z" id="Stroke-3" stroke-width="2" stroke-linejoin="round"></path>
                    <path d="M14,78 C14,79.1051109 10.8662509,80 7,80 C3.13374913,80 0,79.1051109 0,78" id="Stroke-5" stroke-width="2" stroke-linejoin="round"></path>
                    <path d="M14,79 L14,76" id="Stroke-7" stroke-width="2" stroke-linejoin="round"></path>
                    <path d="M0,76 L0,79" id="Stroke-9" stroke-width="2" stroke-linejoin="round"></path>
                </g>
                <g id="Page-1" transform="translate(909.500000, 116.500000) rotate(-360.000000) translate(-909.500000, -116.500000) translate(873.000000, 68.000000)">
                    <path d="M68.3565262,18.4547517 C66.9470646,10.8231425 59.6347108,5.78121149 52.0258646,7.19601609 C47.7458185,7.99128046 44.2822492,10.6586828 42.32248,14.2002 L23.4042492,17.5333264 C20.3281415,15.0337632 16.2221723,13.8487517 12.0241108,14.6293724 C4.41414154,16.0419241 -0.611627692,23.376154 0.798956923,31.0088897" id="Stroke-1" stroke="#3FBF55" stroke-width="3" stroke-linecap="round" stroke-linejoin="round"></path>
                    <path d="M68.3565262,18.4547517 L72.34008,40.0215103 C72.6186031,41.5320621 72.2884185,43.0933034 71.42028,44.3605448 C69.5267723,47.1225678 65.7004492,47.7049356 63.0769415,45.6289126 L47.1191415,33.0049356 C46.1342031,32.2276943 44.8640031,31.9111655 43.6308646,32.1409586 L28.7703108,34.9029816 C27.5382954,35.1316483 26.4646338,35.8829816 25.8233569,36.9632345 L15.4326492,54.4815793 C13.7244492,57.3618782 9.94417231,58.1943149 7.19151077,56.296269 C5.92804923,55.4244069 5.06103385,54.0862 4.78251077,52.5745218 L0.798956923,31.0088897" id="Stroke-3" stroke="#3FBF55" stroke-width="3" stroke-linecap="round" stroke-linejoin="round"></path>
                    <path d="M13.9657985,22.6844092 L16.0670754,34.0591678" id="Stroke-5" stroke="#3FBF55" stroke-width="1.916" stroke-linecap="round" stroke-linejoin="round"></path>
                    <path d="M55.5552462,14.8081379 C55.7764923,16.0066667 54.9869692,17.1590115 53.7931385,17.3797931 C52.5981846,17.6017011 51.4492769,16.8109425 51.2280308,15.6124138 C51.0067846,14.4138851 51.7963077,13.2626667 52.9912615,13.0407586 C54.1862154,12.8188506 55.334,13.6107356 55.5552462,14.8081379 Z" id="Stroke-7" stroke="#3FBF55" stroke-width="2" stroke-linecap="round" stroke-linejoin="round"></path>
                    <path d="M57.6769631,26.2957655 C57.8982092,27.4931678 57.1098092,28.6455126 55.9148554,28.8674207 C54.7199015,29.0893287 53.5721169,28.2974437 53.3497477,27.1000414 C53.1285015,25.9003862 53.9180246,24.7502943 55.1129785,24.5283862 C56.3079323,24.3053517 57.4557169,25.0983632 57.6769631,26.2957655 Z" id="Stroke-9" stroke="#3FBF55" stroke-width="2" stroke-linecap="round" stroke-linejoin="round"></path>
                    <path d="M60.5800046,22.0595747 C59.3850508,22.2814828 58.2372662,21.4907241 58.01602,20.2921954 C57.7947738,19.0936667 58.5831738,17.9424483 59.7781277,17.7194138 C60.9730815,17.4986322 62.1208662,18.2893908 62.3421123,19.4879195 C62.5633585,20.6864483 61.7738354,21.8376667 60.5800046,22.0595747 Z" id="Stroke-11" stroke="#3FBF55" stroke-width="2" stroke-linecap="round" stroke-linejoin="round"></path>
                    <path d="M49.1272031,24.1880897 C47.9322492,24.4099977 46.7844646,23.6181126 46.5632185,22.4207103 C46.3419723,21.2221816 47.1303723,20.0709632 48.3253262,19.8479287 C49.52028,19.6260207 50.6680646,20.4179057 50.8893108,21.6164345 C51.1105569,22.8138368 50.3210338,23.9661816 49.1272031,24.1880897 Z" id="Stroke-13" stroke="#3FBF55" stroke-width="2" stroke-linecap="round" stroke-linejoin="round"></path>
                    <path d="M32.9374877,15.8531333 L30.1129492,0.56288046" id="Stroke-15" stroke="#3FBF55" stroke-width="3" stroke-linecap="round" stroke-linejoin="round"></path>
                    <path d="M20.6866277,27.3177816 L9.34579692,29.4253448" id="Stroke-17" stroke="#3FBF55" stroke-width="1.916" stroke-linecap="round" stroke-linejoin="round"></path>
                    <path d="M28.4988631,23.5325034 L31.5030938,22.9749172" id="Stroke-19" stroke="#3FBF55" stroke-width="1.916" stroke-linecap="round" stroke-linejoin="round"></path>
                    <path d="M36.8205262,21.9859057 L39.8247569,21.4283195" id="Stroke-21" stroke="#3FBF55" stroke-width="1.916" stroke-linecap="round" stroke-linejoin="round"></path>
                    <path d="M34.6358046,94.0074575 C20.1615892,94.0074575 8.38500462,82.1967678 8.38500462,67.6781241 C8.38500462,53.1606069 20.1615892,41.3499172 34.6358046,41.3499172 C49.11002,41.3499172 60.8866046,53.1606069 60.8866046,67.6781241 C60.8866046,82.1967678 49.11002,94.0074575 34.6358046,94.0074575" id="Fill-23" fill="#F5F5F5"></path>
                    <g id="Group-27" transform="translate(5.615385, 38.458354)">
                        <mask id="mask-4" fill="white">
                            <use xlink:href="#path-3"></use>
                        </mask>
                        <g id="Clip-26"></g>
                        <path d="M29.02042,0.991714943 C13.4770354,0.991714943 0.876112308,13.6303356 0.876112308,29.2202207 C0.876112308,44.8101057 13.4770354,57.4487264 29.02042,57.4487264 C44.5638046,57.4487264 57.1647277,44.8101057 57.1647277,29.2202207 C57.1647277,13.6303356 44.5638046,0.991714943 29.02042,0.991714943 M29.02042,4.79005977 C42.4501738,4.79005977 53.3765892,15.7502897 53.3765892,29.2202207 C53.3765892,42.6912782 42.4501738,53.6492552 29.02042,53.6492552 C15.5906662,53.6492552 4.66425077,42.6912782 4.66425077,29.2202207 C4.66425077,15.7502897 15.5906662,4.79005977 29.02042,4.79005977" id="Fill-25" fill="#3FBF55" mask="url(#mask-4)"></path>
                    </g>
                    <path d="M47.4716754,61.1856805 C45.7151831,62.9474276 42.8659369,62.9474276 41.1094446,61.1856805 C39.3529523,59.4239333 39.3529523,56.5661632 41.1094446,54.8044161 C42.8659369,53.042669 45.7151831,53.042669 47.4716754,54.8044161 C49.2281677,56.5661632 49.2281677,59.4239333 47.4716754,61.1856805 Z" id="Stroke-28" stroke="#3FBF55" stroke-width="1.658" stroke-linecap="round" stroke-linejoin="round"></path>
                    <path d="M60.3222585,70.8692069 C58.5657662,72.630954 55.71652,72.630954 53.9600277,70.8692069 C52.2035354,69.1074598 52.2035354,66.2496897 53.9600277,64.4879425 C55.71652,62.7261954 58.5657662,62.7261954 60.3222585,64.4879425 C62.0787508,66.2496897 62.0787508,69.1074598 60.3222585,70.8692069 Z" id="Stroke-30" stroke="#3FBF55" stroke-width="1.658" stroke-linecap="round" stroke-linejoin="round"></path>
                    <path d="M37.81692,48.2833609 C36.0604277,50.045108 33.2111815,50.045108 31.4546892,48.2833609 C29.6981969,46.5216138 29.6981969,43.6638437 31.4546892,41.9020966 C33.2111815,40.1403494 36.0604277,40.1403494 37.81692,41.9020966 C39.5734123,43.6638437 39.5734123,46.5216138 37.81692,48.2833609 Z" id="Stroke-32" stroke="#3FBF55" stroke-width="1.658" stroke-linecap="round" stroke-linejoin="round"></path>
                    <path d="M28.1621646,80.552846 C26.4056723,82.3145931 23.5564262,82.3145931 21.7999338,80.552846 C20.0434415,78.7910989 20.0434415,75.9333287 21.7999338,74.1715816 C23.5564262,72.4098345 26.4056723,72.4098345 28.1621646,74.1715816 C29.9186569,75.9333287 29.9186569,78.7910989 28.1621646,80.552846 Z" id="Stroke-34" stroke="#3FBF55" stroke-width="1.658" stroke-linecap="round" stroke-linejoin="round"></path>
                    <path d="M28.1621646,61.1856805 C26.4056723,62.9474276 23.5564262,62.9474276 21.7999338,61.1856805 C20.0434415,59.4239333 20.0434415,56.5661632 21.7999338,54.8044161 C23.5564262,53.042669 26.4056723,53.042669 28.1621646,54.8044161 C29.9186569,56.5661632 29.9186569,59.4239333 28.1621646,61.1856805 Z" id="Stroke-36" stroke="#3FBF55" stroke-width="1.658" stroke-linecap="round" stroke-linejoin="round"></path>
                    <path d="M47.4716754,80.552846 C45.7151831,82.3145931 42.8659369,82.3145931 41.1094446,80.552846 C39.3529523,78.7910989 39.3529523,75.9333287 41.1094446,74.1715816 C42.8659369,72.4098345 45.7151831,72.4098345 47.4716754,74.1715816 C49.2281677,75.9333287 49.2281677,78.7910989 47.4716754,80.552846 Z" id="Stroke-38" stroke="#3FBF55" stroke-width="1.658" stroke-linecap="round" stroke-linejoin="round"></path>
                    <path d="M37.81692,70.8692069 C36.0604277,72.630954 33.2111815,72.630954 31.4546892,70.8692069 C29.6981969,69.1074598 29.6981969,66.2496897 31.4546892,64.4879425 C33.2111815,62.7261954 36.0604277,62.7261954 37.81692,64.4879425 C39.5734123,66.2496897 39.5734123,69.1074598 37.81692,70.8692069 Z" id="Stroke-40" stroke="#3FBF55" stroke-width="1.658" stroke-linecap="round" stroke-linejoin="round"></path>
                    <path d="M15.58842,70.8692069 C13.8319277,72.630954 10.9826815,72.630954 9.22618923,70.8692069 C7.46969692,69.1074598 7.46969692,66.2496897 9.22618923,64.4879425 C10.9826815,62.7261954 13.8319277,62.7261954 15.58842,64.4879425 C17.3449123,66.2496897 17.3449123,69.1074598 15.58842,70.8692069 Z" id="Stroke-42" stroke="#3FBF55" stroke-width="1.658" stroke-linecap="round" stroke-linejoin="round"></path>
                    <path d="M37.81692,93.4551655 C36.0604277,95.2169126 33.2111815,95.2169126 31.4546892,93.4551655 C29.6981969,91.6934184 29.6981969,88.8356483 31.4546892,87.0739011 C33.2111815,85.312154 36.0604277,85.312154 37.81692,87.0739011 C39.5734123,88.8356483 39.5734123,91.6934184 37.81692,93.4551655 Z" id="Stroke-44" stroke="#3FBF55" stroke-width="1.658" stroke-linecap="round" stroke-linejoin="round"></path>
                </g>
                <g id="Page-1" transform="translate(1105.000000, 312.000000)">
                    <path d="M27.3752702,47.9753302 L27.0979368,91.1407256 C27.0889544,92.5260279 25.9560421,93.6456558 24.5626386,93.6456558 L20.6530246,93.6456558 C19.2573754,93.6456558 18.1233404,92.5226791 18.1177263,91.1351442 L17.9347088,47.7085395 L17.048814,7.28695814 C17.048814,4.24063256 19.533586,1.77142326 22.5977263,1.77142326 C25.6618667,1.77142326 28.1455158,4.24063256 28.1455158,7.28695814 L27.3752702,47.9753302 Z" id="Stroke-1" stroke="#3FBF55" stroke-width="3.174" stroke-linecap="round" stroke-linejoin="round"></path>
                    <path d="M17.9350456,47.7082047 L26.4897123,47.7082047" id="Stroke-3" stroke="#3FBF55" stroke-width="3.174" stroke-linecap="round" stroke-linejoin="round"></path>
                    <path d="M17.9651368,54.9443721 L26.4445754,54.9443721" id="Stroke-5" stroke="#3FBF55" stroke-width="3.174" stroke-linecap="round" stroke-linejoin="round"></path>
                    <path d="M45.1669333,47.9753302 L44.8896,91.1407256 C44.8806175,92.5260279 43.7477053,93.6456558 42.3543018,93.6456558 L38.4446877,93.6456558 C37.0490386,93.6456558 35.9150035,92.5226791 35.9093895,91.1351442 L35.7263719,47.7085395 L34.8416,7.28695814 C34.8416,4.24063256 37.3252491,1.77142326 40.3893895,1.77142326 C43.4535298,1.77142326 45.9371789,4.24063256 45.9371789,7.28695814 L45.1669333,47.9753302 Z" id="Stroke-7" stroke="#3FBF55" stroke-width="3.174" stroke-linecap="round" stroke-linejoin="round"></path>
                    <path d="M36.4695579,47.7082047 L44.2820491,47.7082047" id="Stroke-9" stroke="#3FBF55" stroke-width="3.174" stroke-linecap="round" stroke-linejoin="round"></path>
                    <path d="M35.7573614,54.9443721 L44.2368,54.9443721" id="Stroke-11" stroke="#3FBF55" stroke-width="3.174" stroke-linecap="round" stroke-linejoin="round"></path>
                    <path d="M56.0226807,43.9178791 L56.0226807,88.6784372" id="Stroke-13" stroke="#3FBF55" stroke-width="3" stroke-linecap="round" stroke-linejoin="round"></path>
                    <path d="M50.1794807,81.8681302 L61.8656561,81.8681302" id="Stroke-15" stroke="#3FBF55" stroke-width="2" stroke-linecap="round" stroke-linejoin="round"></path>
                    <mask id="mask-6" fill="white">
                        <use xlink:href="#path-5"></use>
                    </mask>
                    <g id="Clip-18"></g>
                    <polygon id="Stroke-17" stroke="#3FBF55" stroke-width="2.433" stroke-linecap="round" stroke-linejoin="round" mask="url(#mask-6)" points="53.7139649 43.1445209 58.3320702 43.1445209 58.3320702 21.1114047 53.7139649 21.1114047"></polygon>
                    <path d="M6.96567018,43.9178791 L6.96567018,88.6784372" id="Stroke-19" stroke="#3FBF55" stroke-width="3" stroke-linecap="round" stroke-linejoin="round" mask="url(#mask-6)"></path>
                    <path d="M1.12303158,81.8681302 L12.809207,81.8681302" id="Stroke-20" stroke="#3FBF55" stroke-width="2" stroke-linecap="round" stroke-linejoin="round" mask="url(#mask-6)"></path>
                    <polygon id="Stroke-21" stroke="#3FBF55" stroke-width="2.433" stroke-linecap="round" stroke-linejoin="round" mask="url(#mask-6)" points="4.6562807 43.1445209 9.27438596 43.1445209 9.27438596 21.1114047 4.6562807 21.1114047"></polygon>
                </g>
                <g id="Page-1" transform="translate(1481.000000, 310.000000)" stroke="#3FBF55" stroke-linecap="round" stroke-linejoin="round">
                    <path d="M33.8761413,3 C33.8761413,3 75.1696138,42.0928452 74.9994757,82.9515314 C74.9934302,84.2858765 74.2325587,85.5249112 73.033819,86.1028386 C69.2821438,87.9111361 58.5841696,90.041756 29,84.0380695 C29,84.0380695 52.0593294,19.0459329 33.8761413,3 Z" id="Stroke-1" stroke-width="3.929"></path>
                    <path d="M33,1.27720816 L28.4802744,0 C28.4802744,0 37.2555746,18.3815456 20,80.9220293 C20,80.9220293 26.7307033,81.2611943 28.3053173,80.5247706" id="Stroke-3" stroke-width="2.619"></path>
                    <path d="M33,3 C33,3 41.6546163,30.9995686 36.1910337,59" id="Stroke-5" stroke-width="2.619"></path>
                    <path d="M71.4774899,87.0256548 L72,89.4240291 L46.435449,92.7819262 C46.435449,92.7819262 40.5410454,91.4443048 37.7589847,92.1330154 C34.9769241,92.8225913 34.0009311,92.2653932 32.3495194,92.0075594 C30.697234,91.7488602 28.6971911,91.9210379 26.5232693,92.7819262 C24.3493475,93.6428146 21.4799106,94.245869 19.9150015,93.9015137 C18.3500924,93.5571584 12.8715998,93.6428146 12.8715998,93.6428146 L11,87.0256548 L29.3927062,84" id="Stroke-7" stroke-width="2.619"></path>
                    <path d="M60,86.354 L11,86" id="Stroke-9" stroke-width="2.619"></path>
                    <path d="M12,93.5717251 C12,93.5717251 7.72191132,94.5686076 5.47998278,92.6133042 C3.2389152,90.6590403 0,94 0,94" id="Stroke-11" stroke-width="2.619"></path>
                    <path d="M71,89 C71,89 74.245256,89.0893114 75.8645423,89.8204185 C76.3486096,90.0385045 77.56021,90.2493209 79,89.2191244" id="Stroke-13" stroke-width="2.619"></path>
                </g>
                <g id="Page-1" transform="translate(717.500000, 357.000000) rotate(-360.000000) translate(-717.500000, -357.000000) translate(693.000000, 313.000000)" stroke="#3FBF55" stroke-width="4">
                    <path d="M45,22 C45,34.1506225 35.5971053,44 24,44 C12.4016838,44 3,34.1506225 3,22 C3,9.8493775 12.4016838,0 24,0 C35.5971053,0 45,9.8493775 45,22 Z" id="Stroke-1"></path>
                    <path d="M49,88 L0,88 L0,63.5094922 C0,52.7343597 8.70346212,44 19.4377321,44 L29.5622679,44 C40.2977672,44 49,52.7343597 49,63.5094922 L49,88 Z" id="Stroke-3"></path>
                </g>
            </g>
        </g>
    </g>
</svg>