<svg width="207" height="163" viewBox="0 0 207 163" version="1.1" xmlns="http://www.w3.org/2000/svg" xmlns:xlink="http://www.w3.org/1999/xlink">
<g id="Canvas" fill="none">
<g id="sports_green">
<g id="Group">
<g id="Group_2">
<g id="Vector">
<path d="M 6.19548 4C 7.09548 4 7.99548 4.6 8.29548 5.5C 12.4955 18.2 31.3955 75.8 34.0955 80.3C 37.0955 85.4 42.2955 103.8 43.9955 108.3C 44.7955 110.5 50.1955 125.6 71.4955 125.6C 73.3955 125.6 75.4955 125.5 77.6955 125.2C 77.7955 125.2 77.8955 125.2 77.9955 125.2C 78.8955 125.2 79.6955 125.7 80.0955 126.5L 82.1955 130.4C 82.9955 131.9 82.0955 133.7 80.3955 133.9C 78.2955 134.2 75.2955 134.5 71.7955 134.5C 59.3955 134.5 41.0955 130.7 35.3955 109.2C 28.5955 83.7 26.0955 74 25.2955 70.8C 25.0955 69.9 24.7955 69 24.4955 68.1L 4.09548 7C 3.79548 6 4.19548 4.9 5.19548 4.4C 5.49548 4 5.89548 4 6.19548 4ZM 6.19548 -1.52588e-06C 5.19548 -1.52588e-06 4.19548 0.200003 3.29548 0.700003C 0.595481 2.1 -0.604518 5.2 0.295482 8.1L 20.6955 69.2C 20.9955 70 21.1955 70.8 21.3955 71.7C 22.1955 74.7 24.6955 84.4 31.5955 110.1C 36.4955 128.3 50.7955 138.4 71.8955 138.4C 75.6955 138.4 78.9955 138.1 80.9955 137.8C 83.0955 137.5 84.8955 136.2 85.7955 134.4C 86.6955 132.5 86.6955 130.3 85.7955 128.5L 83.6955 124.6C 82.5955 122.5 80.3955 121.2 77.9955 121.2C 77.6955 121.2 77.4955 121.2 77.1955 121.2C 75.1955 121.4 73.2955 121.6 71.4955 121.6C 55.5955 121.6 49.7955 112.5 47.7955 107L 47.6955 106.9C 47.1955 105.6 46.2955 102.9 45.2955 99.7C 42.2955 90.1 39.5955 81.9 37.3955 78.3C 35.7955 75.4 25.4955 45.7 11.9955 4.3C 11.2955 1.7 8.89548 -1.52588e-06 6.19548 -1.52588e-06Z" transform="translate(102.805 0)" fill="#3FBF55"/>
</g>
</g>
<g id="Vector_2">
<path d="M 16.4 8.20001C 16.4 12.7287 12.7287 16.4 8.20001 16.4C 3.67127 16.4 -6.10352e-06 12.7287 -6.10352e-06 8.20001C -6.10352e-06 3.67127 3.67127 -6.10352e-06 8.20001 -6.10352e-06C 12.7287 -6.10352e-06 16.4 3.67127 16.4 8.20001Z" stroke-width="4" stroke-miterlimit="10" transform="translate(188.2 108.8)" stroke="#3FBF55"/>
</g>
<g id="Group_3">
<g id="Group_4">
<g id="Vector_3">
<path d="M 43.9 5C 65.3 5 82.8 22.4 82.8 43.9C 82.8 65.4 65.4 82.8 43.9 82.8C 22.4 82.8 5 65.4 5 43.9C 5 22.4 22.5 5 43.9 5ZM 43.9 0C 19.7 0 -3.05176e-06 19.6 -3.05176e-06 43.9C -3.05176e-06 68.1 19.6 87.8 43.9 87.8C 68.2 87.8 87.8 68.2 87.8 43.9C 87.8 19.6 68.1 0 43.9 0Z" transform="translate(0 43.4)" fill="#3FBF55"/>
</g>
</g>
<g id="Vector_4">
<path d="M 6.10352e-06 0L 6.10352e-06 87.7" stroke-width="4" stroke-miterlimit="10" transform="translate(43.9 43.4)" stroke="#3FBF55"/>
</g>
<g id="Vector_5">
<path d="M 3.05176e-06 3.05176e-06L 87.7 3.05176e-06" stroke-width="4" stroke-miterlimit="10" transform="translate(0.100006 87.2)" stroke="#3FBF55"/>
</g>
<g id="Vector_6">
<path d="M -1.52588e-06 11C 7.7 4.2 17.9 -3.05176e-06 29 -3.05176e-06C 40.1 -3.05176e-06 50.3 4.1 58 11" stroke-width="4" stroke-miterlimit="10" transform="translate(14.9 103.6)" stroke="#3FBF55"/>
</g>
<g id="Vector_7">
<path d="M 58 -6.10352e-06C 50.3 6.79999 40.1 11 29 11C 17.9 11 7.7 6.89999 -1.52588e-06 -6.10352e-06" stroke-width="4" stroke-miterlimit="10" transform="translate(14.9 59.8)" stroke="#3FBF55"/>
</g>
</g>
<g id="Group_5">
<g id="Group_6">
<g id="Group_7">
<g id="Vector_8">
<path d="M 36.1 72.2C 16.2 72.2 -6.10352e-06 56 -6.10352e-06 36.1C -6.10352e-06 16.2 16.2 0 36.1 0C 56 0 72.2 16.2 72.2 36.1C 72.2 56 56 72.2 36.1 72.2Z" transform="translate(71.2 82.4)" fill="#F5F5F5"/>
</g>
<g id="Vector_9">
<path d="M 38.3 4.30001C 57 4.30001 72.3 19.6 72.3 38.3C 72.3 57 57 72.3 38.3 72.3C 19.6 72.3 4.3 57 4.3 38.3C 4.3 19.6 19.6 4.30001 38.3 4.30001ZM 38.3 3.05176e-06C 17.2 3.05176e-06 -3.05176e-06 17.1 -3.05176e-06 38.3C -3.05176e-06 59.5 17.1 76.6 38.3 76.6C 59.5 76.6 76.6 59.5 76.6 38.3C 76.6 17.1 59.4 3.05176e-06 38.3 3.05176e-06Z" transform="translate(69 80.2)" fill="#3FBF55"/>
</g>
</g>
<g id="Vector_10">
<path d="M 19.6 3.05176e-06L -6.10352e-06 14.2L 7.49999 37.2L 31.7 37.2L 39.2 14.2L 19.6 3.05176e-06Z" transform="translate(87.7 97.2)" fill="#F5F5F5"/>
<path d="M 19.6 3.05176e-06L -6.10352e-06 14.2L 7.49999 37.2L 31.7 37.2L 39.2 14.2L 19.6 3.05176e-06Z" stroke-width="3.5436" stroke-miterlimit="10" transform="translate(87.7 97.2)" stroke="#3FBF55"/>
</g>
<g id="Vector_11">
<path d="M 0 17L 0 3.05176e-06" stroke-width="3.5436" stroke-miterlimit="10" transform="translate(107.3 80.2)" stroke="#3FBF55"/>
</g>
<g id="Vector_12">
<path d="M 6.10352e-06 6.5L 16.2 0" stroke-width="3.5436" stroke-miterlimit="10" transform="translate(126.9 104.9)" stroke="#3FBF55"/>
</g>
<g id="Vector_13">
<path d="M 6.10352e-06 0L 10.9 14.7" stroke-width="3.5436" stroke-miterlimit="10" transform="translate(119.4 134.4)" stroke="#3FBF55"/>
</g>
<g id="Vector_14">
<path d="M 12 0L -6.10352e-06 13.8" stroke-width="3.5436" stroke-miterlimit="10" transform="translate(83.2 134.4)" stroke="#3FBF55"/>
</g>
</g>
<g id="Vector_15">
<path d="M 16.2 6.5L -3.05176e-06 0" stroke-width="3.5436" stroke-miterlimit="10" transform="translate(71.5 104.9)" stroke="#3FBF55"/>
</g>
</g>
<g id="Group_8">
<g id="Vector_16">
<path d="M 28.7 57.4C 44.5506 57.4 57.4 44.5506 57.4 28.7C 57.4 12.8494 44.5506 0 28.7 0C 12.8494 0 -3.05176e-06 12.8494 -3.05176e-06 28.7C -3.05176e-06 44.5506 12.8494 57.4 28.7 57.4Z" transform="translate(21.5 103.4)" fill="#F5F5F5"/>
<path d="M 57.4 28.7C 57.4 44.5506 44.5506 57.4 28.7 57.4C 12.8494 57.4 -3.05176e-06 44.5506 -3.05176e-06 28.7C -3.05176e-06 12.8494 12.8494 0 28.7 0C 44.5506 0 57.4 12.8494 57.4 28.7Z" stroke-miterlimit="10" transform="translate(21.5 103.4)" stroke="#3FBF55"/>
</g>
<g id="Vector_17">
<path d="M 0.0656854 9.20216L 6.06569 18.9022C 6.06569 19.0022 6.16568 19.0021 6.26568 19.0021C 7.56568 18.7021 16.8657 16.8021 17.0657 16.5021C 17.2657 16.2021 18.3657 6.80216 18.5657 4.70216C 18.5657 4.50216 18.4657 4.20215 18.2657 4.10215C 16.3657 3.30215 8.06569 -0.097836 7.56569 0.00216403C 7.06569 0.102164 1.06569 7.50217 0.165692 8.80217C -0.0343085 9.00217 -0.0343146 9.10216 0.0656854 9.20216Z" stroke-width="3" stroke-miterlimit="10" transform="translate(44.7343 122.198)" stroke="#3FBF55"/>
</g>
<g id="Vector_18">
<path d="M 3.19999 14.3019L -3.05176e-06 4.80193C -3.05176e-06 4.70193 3.04729e-06 4.50194 0.100003 4.50194C 0.900003 3.70194 5.1 -0.098056 7.1 0.00194397C 9.3 0.101944 17.8 3.70194 18 4.40194C 18.2 5.00194 21.9 12.5019 21.2 13.5019C 20.4 14.5019 14.3 18.5019 14.3 18.5019" stroke-width="3" stroke-miterlimit="10" transform="translate(49 107.998)" stroke="#3FBF55"/>
</g>
<g id="Vector_19">
<path d="M 5.5 18.5C 6.3 17.7 7.10001 7.1 6.60001 6.2C 5.40001 4.1 1.4 0.800006 0 6.10352e-06" stroke-width="3" stroke-miterlimit="10" transform="translate(70.3 121.5)" stroke="#3FBF55"/>
</g>
<g id="Vector_20">
<path d="M 3.05176e-06 19.8C 1.3 19.1 4.1 6.99999 1 -6.10352e-06" stroke-width="3" stroke-miterlimit="10" transform="translate(76.6 123.8)" stroke="#3FBF55"/>
</g>
<g id="Vector_21">
<path d="M 0 -1.2207e-05L 6.8 5.59999C 6.8 5.59999 11.9 3.5 14 1.2L 14.4 4.80001C 14.4 5.10001 14.8 5.10001 14.9 4.90001" stroke-width="3" stroke-miterlimit="10" transform="translate(61.8 138.7)" stroke="#3FBF55"/>
</g>
<g id="Vector_22">
<path d="M 4.5 -1.2207e-05L -3.05176e-06 9.49999C -3.05176e-06 9.49999 4.6 15.3 6.3 15.4C 8 15.5 15.8 14.2 17 13C 18.2 11.8 21.2 6.5 22.1 3.2" stroke-width="3" stroke-miterlimit="10" transform="translate(46.5 141.2)" stroke="#3FBF55"/>
</g>
<g id="Vector_23">
<path d="M 15.2 0.899997L 4.9 3.05176e-06C 4.7 3.05176e-06 4.50001 0.100006 4.30001 0.300006C 3.40001 1.70001 3.05176e-06 7.49999 3.05176e-06 9.59999C 0.100003 12 4.6 19.2 6 19.7C 7.4 20.2 13.4 21 16.8 20.6" stroke-width="3" stroke-miterlimit="10" transform="translate(29.6 130.2)" stroke="#3FBF55"/>
</g>
<g id="Vector_24">
<path d="M 3.01928 18.7896C 3.01928 18.7896 -0.280721 11.3896 0.0192786 9.48961C 0.319279 7.68961 5.41928 0.789615 7.11928 0.489615C 8.81928 0.289615 14.9193 -0.610388 18.1193 0.689612" stroke-width="3" stroke-miterlimit="10" transform="translate(30.9807 111.71)" stroke="#3FBF55"/>
</g>
<g id="Vector_25">
<path d="M 7.1149 18.6122C 7.1149 18.6122 2.3149 17.6122 1.3149 15.2122C 0.3149 12.9122 -0.0850955 9.31225 0.0149045 8.81225C 0.0149045 8.31225 1.1149 4.11226 2.1149 3.11226C 3.1149 2.11226 6.8149 -0.187748 8.4149 0.012252" stroke-width="3" stroke-miterlimit="10" transform="translate(22.5851 121.088)" stroke="#3FBF55"/>
</g>
<g id="Vector_26">
<path d="M 18.1 3.86387C 18.1 3.86387 15.6 0.363864 13 0.0638643C 10.4 -0.236136 3.9 0.563864 2.6 1.56386C 1.3 2.56386 -3.05176e-06 4.76386 -3.05176e-06 8.06386" stroke-width="3" stroke-miterlimit="10" transform="translate(38 104.136)" stroke="#3FBF55"/>
</g>
<g id="Vector_27">
<path d="M -6.10352e-06 0.0369761C -6.10352e-06 0.0369761 9.90001 -0.963014 18.2 7.43699C 18.4 7.63699 18.3 7.93698 18 8.03698L 15.4 8.03698" stroke-width="3" stroke-miterlimit="10" transform="translate(51.7 104.263)" stroke="#3FBF55"/>
</g>
<g id="Vector_28">
<path d="M 7.00001 15.9C 7.00001 15.9 8.6 14.2 7.4 11.1C 6.2 7.99999 4.40001 3.6 6.10352e-06 3.05176e-06" stroke-width="3" stroke-miterlimit="10" transform="translate(69.9 111.7)" stroke="#3FBF55"/>
</g>
<g id="Vector_29">
<path d="M -3.05176e-06 10.9C -3.05176e-06 10.9 3.59999 12 4.69999 11.3C 5.79999 10.6 11.4 4.89999 13.3 -1.2207e-05" stroke-width="3" stroke-miterlimit="10" transform="translate(63.5 143.2)" stroke="#3FBF55"/>
</g>
<g id="Vector_30">
<path d="M 19.2811 -6.10352e-06C 19.2811 -6.10352e-06 11.7811 6.69999 0.281142 5.89999C -0.0188581 5.89999 -0.118864 5.49999 0.181136 5.39999C 1.58114 4.69999 3.98114 3.20001 4.48114 1.80001" stroke-width="3" stroke-miterlimit="10" transform="translate(48.3189 154.8)" stroke="#3FBF55"/>
</g>
<g id="Vector_31">
<path d="M 0.243514 -6.10352e-06C 0.243514 -6.10352e-06 -0.556486 3.89999 0.743514 6.49999C 1.04351 7.09999 1.64351 7.59999 2.24351 7.89999C 4.24351 8.79999 9.94352 11.3 13.0435 10.3" stroke-width="3" stroke-miterlimit="10" transform="translate(35.4565 149.8)" stroke="#3FBF55"/>
</g>
<g id="Vector_32">
<path d="M 0.173012 18.2C 0.173012 18.2 -0.326991 15.2 0.373009 13.2C 0.973009 11.6 4.473 3.8 15.673 -3.05176e-06" stroke-width="3" stroke-miterlimit="10" transform="translate(24.527 106.1)" stroke="#3FBF55"/>
</g>
<g id="Vector_33">
<path d="M 0.347224 3.05176e-06C 0.347224 3.05176e-06 -0.152779 3.4 0.0472207 4.7C 0.347221 6.4 3.44722 16.3 12.8472 20.6" stroke-width="3" stroke-miterlimit="10" transform="translate(23.3528 135.7)" stroke="#3FBF55"/>
</g>
<g id="Vector_34">
<path d="M 3.48401 -6.10352e-06C 3.48401 -6.10352e-06 -3.31599 9.5 2.08401 21.1" stroke-width="3" stroke-miterlimit="10" transform="translate(21.316 119.3)" stroke="#3FBF55"/>
</g>
</g>
</g>
</g>
</g>
</svg>

