<svg width="105" height="171" viewBox="0 0 105 171" version="1.1" xmlns="http://www.w3.org/2000/svg" xmlns:xlink="http://www.w3.org/1999/xlink">
<g id="Canvas" fill="none">
<g id="star_green">
<g id="Group">
<g id="Vector">
<path d="M 3.05176e-06 0L 3.05176e-06 49" stroke-width="5" stroke-miterlimit="10" stroke-linecap="round" transform="translate(27.4144 109.275)" stroke="#3FBF55"/>
</g>
<g id="Vector_2">
<path d="M -3.05176e-06 0L -3.05176e-06 34" stroke-width="5" stroke-miterlimit="10" stroke-linecap="round" transform="translate(40.3144 99.775)" stroke="#3FBF55"/>
</g>
<g id="Vector_3">
<path d="M -3.05176e-06 6.10352e-06L -3.05176e-06 62" stroke-width="5" stroke-miterlimit="10" stroke-linecap="round" transform="translate(53.3144 92.375)" stroke="#3FBF55"/>
</g>
<g id="Vector_4">
<path d="M -3.05176e-06 0L -3.05176e-06 46.8" stroke-width="5" stroke-miterlimit="10" stroke-linecap="round" transform="translate(65.3144 99.775)" stroke="#3FBF55"/>
</g>
<g id="Vector_5">
<path d="M 3.05176e-06 0L 3.05176e-06 59.1" stroke-width="5" stroke-miterlimit="10" stroke-linecap="round" transform="translate(77.4144 109.275)" stroke="#3FBF55"/>
</g>
</g>
<g id="Group_2">
<g id="Vector_6">
<path d="M 0.414417 37.275C -0.285583 36.575 -0.085583 35.975 0.914417 35.775L 32.1144 30.975C 33.1144 30.875 34.2144 29.975 34.6144 29.075L 48.4144 0.675002C 48.8144 -0.224998 49.5144 -0.224998 50.0144 0.675002L 64.2144 28.875C 64.6144 29.775 65.8144 30.575 66.7144 30.675L 98.0144 34.975C 99.0144 35.075 99.2144 35.775 98.5144 36.475L 76.1144 58.675C 75.4144 59.375 75.0144 60.675 75.2144 61.675L 80.8144 92.775C 81.0144 93.775 80.4144 94.175 79.5144 93.675L 51.5144 79.175C 50.6144 78.775 49.2144 78.775 48.4144 79.175L 20.6144 94.075C 19.7144 94.575 19.2144 94.075 19.3144 93.175L 24.4144 62.075C 24.6144 61.075 24.1144 59.775 23.4144 59.075L 0.414417 37.275Z" stroke-width="5" stroke-miterlimit="10" transform="translate(3 3)" stroke="#3FBF55"/>
</g>
</g>
</g>
</g>
</svg>

